G04 #@! TF.FileFunction,Soldermask,Top*
%FSLAX46Y46*%
G04 Gerber Fmt 4.6, Leading zero omitted, Abs format (unit mm)*
G04 Created by KiCad (PCBNEW 4.0.2-stable) date 5/30/2017 4:55:57 PM*
%MOMM*%
G01*
G04 APERTURE LIST*
%ADD10C,0.100000*%
%ADD11C,0.150000*%
%ADD12R,1.727200X2.500000*%
%ADD13O,1.727200X2.500000*%
%ADD14R,0.700000X1.300000*%
%ADD15R,1.600000X2.180000*%
%ADD16R,1.000000X1.250000*%
%ADD17R,1.250000X1.000000*%
%ADD18R,1.600000X1.000000*%
%ADD19R,1.000000X1.600000*%
%ADD20R,1.500000X1.500000*%
%ADD21C,1.500000*%
%ADD22R,1.300000X0.700000*%
%ADD23R,2.500000X1.100000*%
%ADD24O,2.500000X1.100000*%
%ADD25R,2.000000X3.500000*%
%ADD26R,7.000000X7.000000*%
%ADD27R,1.000000X1.500000*%
%ADD28R,2.000000X3.000000*%
%ADD29R,2.500000X1.800000*%
%ADD30R,1.700000X1.700000*%
%ADD31O,1.700000X1.700000*%
%ADD32R,1.550000X0.600000*%
%ADD33C,5.600000*%
%ADD34R,1.600000X3.500000*%
G04 APERTURE END LIST*
D10*
D11*
X100000000Y-100000000D02*
X100000000Y-150000000D01*
X150000000Y-100000000D02*
X100000000Y-100000000D01*
X150000000Y-150000000D02*
X150000000Y-100000000D01*
X100000000Y-150000000D02*
X150000000Y-150000000D01*
D12*
X119380000Y-131572000D03*
D13*
X116840000Y-131572000D03*
X114300000Y-131572000D03*
X111760000Y-131572000D03*
X109220000Y-131572000D03*
X106680000Y-131572000D03*
X104140000Y-131572000D03*
X101600000Y-131572000D03*
D14*
X143830000Y-114452400D03*
X145730000Y-114452400D03*
D15*
X121920000Y-105392000D03*
X121920000Y-114572000D03*
D16*
X101108000Y-126746000D03*
X103108000Y-126746000D03*
X101108000Y-124714000D03*
X103108000Y-124714000D03*
D17*
X122428000Y-133588000D03*
X122428000Y-131588000D03*
X124460000Y-133588000D03*
X124460000Y-131588000D03*
D18*
X143764000Y-136930000D03*
X143764000Y-139930000D03*
D17*
X143764000Y-129524000D03*
X143764000Y-127524000D03*
D18*
X141478000Y-130024000D03*
X141478000Y-127024000D03*
D19*
X137692000Y-124714000D03*
X140692000Y-124714000D03*
D20*
X146812000Y-144272000D03*
D21*
X146812000Y-146772000D03*
D22*
X125476000Y-107630000D03*
X125476000Y-105730000D03*
X118110000Y-126680000D03*
X118110000Y-124780000D03*
X125476000Y-109032000D03*
X125476000Y-110932000D03*
X126365000Y-133538000D03*
X126365000Y-131638000D03*
X125476000Y-115636000D03*
X125476000Y-117536000D03*
X125476000Y-114234000D03*
X125476000Y-112334000D03*
D15*
X121920000Y-117838000D03*
X121920000Y-127018000D03*
D23*
X101916000Y-106934000D03*
D24*
X101916000Y-108934000D03*
X101916000Y-110934000D03*
X101916000Y-112934000D03*
X101916000Y-114934000D03*
X101916000Y-116934000D03*
X101916000Y-118934000D03*
X101916000Y-120934000D03*
X117316000Y-120934000D03*
X117216000Y-118934000D03*
X117316000Y-116934000D03*
X117316000Y-114934000D03*
X117316000Y-112934000D03*
X117316000Y-110934000D03*
X117316000Y-108934000D03*
X117316000Y-106934000D03*
D25*
X140974000Y-138286000D03*
X136394000Y-138286000D03*
D26*
X138674000Y-145686000D03*
D27*
X139168000Y-127298000D03*
X137668000Y-127298000D03*
X136168000Y-127298000D03*
D28*
X137668000Y-130258000D03*
D10*
G36*
X136668000Y-128783000D02*
X137168000Y-128033000D01*
X138168000Y-128033000D01*
X138668000Y-128783000D01*
X136668000Y-128783000D01*
X136668000Y-128783000D01*
G37*
D29*
X140684000Y-133858000D03*
X136684000Y-133858000D03*
D30*
X114300000Y-125730000D03*
D31*
X111760000Y-125730000D03*
X109220000Y-125730000D03*
X106680000Y-125730000D03*
D30*
X148082000Y-119634000D03*
D31*
X148082000Y-122174000D03*
X148082000Y-124714000D03*
X148082000Y-127254000D03*
D30*
X142798800Y-102565200D03*
D31*
X140258800Y-102565200D03*
X137718800Y-102565200D03*
D30*
X148031200Y-106832400D03*
D31*
X148031200Y-109372400D03*
X148031200Y-111912400D03*
X148031200Y-114452400D03*
D14*
X133944400Y-108508800D03*
X132044400Y-108508800D03*
X132095200Y-110642400D03*
X133995200Y-110642400D03*
X143779200Y-111912400D03*
X145679200Y-111912400D03*
D22*
X144729200Y-110119200D03*
X144729200Y-108219200D03*
D32*
X136187200Y-108534200D03*
X136187200Y-109804200D03*
X136187200Y-111074200D03*
X136187200Y-112344200D03*
X141587200Y-112344200D03*
X141587200Y-111074200D03*
X141587200Y-109804200D03*
X141587200Y-108534200D03*
D33*
X130000000Y-146000000D03*
X130000000Y-104000000D03*
D34*
X124079000Y-136746000D03*
X124079000Y-142146000D03*
X131400000Y-133600000D03*
X131400000Y-139000000D03*
M02*
