G04 #@! TF.FileFunction,Copper,L1,Top,Mixed*
%FSLAX46Y46*%
G04 Gerber Fmt 4.6, Leading zero omitted, Abs format (unit mm)*
G04 Created by KiCad (PCBNEW 4.0.2-stable) date 6/15/2017 12:31:11 PM*
%MOMM*%
G01*
G04 APERTURE LIST*
%ADD10C,0.100000*%
%ADD11C,0.150000*%
%ADD12R,1.727200X2.500000*%
%ADD13O,1.727200X2.500000*%
%ADD14R,0.700000X1.300000*%
%ADD15R,1.600000X2.180000*%
%ADD16R,1.000000X1.250000*%
%ADD17R,1.250000X1.000000*%
%ADD18R,1.600000X1.000000*%
%ADD19R,1.000000X1.600000*%
%ADD20R,1.500000X1.500000*%
%ADD21C,1.500000*%
%ADD22R,1.300000X0.700000*%
%ADD23R,2.500000X1.100000*%
%ADD24O,2.500000X1.100000*%
%ADD25R,2.000000X3.500000*%
%ADD26R,7.000000X7.000000*%
%ADD27R,1.000000X1.500000*%
%ADD28R,2.000000X3.000000*%
%ADD29R,2.500000X1.800000*%
%ADD30R,1.700000X1.700000*%
%ADD31O,1.700000X1.700000*%
%ADD32R,1.550000X0.600000*%
%ADD33C,5.600000*%
%ADD34R,1.600000X3.500000*%
%ADD35C,0.600000*%
%ADD36C,0.500000*%
%ADD37C,0.250000*%
G04 APERTURE END LIST*
D10*
D11*
X100000000Y-100000000D02*
X100000000Y-150000000D01*
X150000000Y-100000000D02*
X100000000Y-100000000D01*
X150000000Y-150000000D02*
X150000000Y-100000000D01*
X100000000Y-150000000D02*
X150000000Y-150000000D01*
D12*
X119380000Y-131572000D03*
D13*
X116840000Y-131572000D03*
X114300000Y-131572000D03*
X111760000Y-131572000D03*
X109220000Y-131572000D03*
X106680000Y-131572000D03*
X104140000Y-131572000D03*
X101600000Y-131572000D03*
D14*
X143830000Y-114452400D03*
X145730000Y-114452400D03*
D15*
X121920000Y-105392000D03*
X121920000Y-114572000D03*
D16*
X101108000Y-126746000D03*
X103108000Y-126746000D03*
X101108000Y-124714000D03*
X103108000Y-124714000D03*
D17*
X122428000Y-133588000D03*
X122428000Y-131588000D03*
X124460000Y-133588000D03*
X124460000Y-131588000D03*
D18*
X143764000Y-136930000D03*
X143764000Y-139930000D03*
D17*
X143764000Y-129524000D03*
X143764000Y-127524000D03*
D18*
X141478000Y-130024000D03*
X141478000Y-127024000D03*
D19*
X137692000Y-124714000D03*
X140692000Y-124714000D03*
D20*
X146812000Y-144272000D03*
D21*
X146812000Y-146772000D03*
D22*
X125476000Y-107630000D03*
X125476000Y-105730000D03*
X127508000Y-115636000D03*
X127508000Y-117536000D03*
X125476000Y-109032000D03*
X125476000Y-110932000D03*
X126365000Y-133538000D03*
X126365000Y-131638000D03*
X125476000Y-115636000D03*
X125476000Y-117536000D03*
X125476000Y-114234000D03*
X125476000Y-112334000D03*
D15*
X121920000Y-117838000D03*
X121920000Y-127018000D03*
D23*
X101916000Y-106934000D03*
D24*
X101916000Y-108934000D03*
X101916000Y-110934000D03*
X101916000Y-112934000D03*
X101916000Y-114934000D03*
X101916000Y-116934000D03*
X101916000Y-118934000D03*
X101916000Y-120934000D03*
X117316000Y-120934000D03*
X117216000Y-118934000D03*
X117316000Y-116934000D03*
X117316000Y-114934000D03*
X117316000Y-112934000D03*
X117316000Y-110934000D03*
X117316000Y-108934000D03*
X117316000Y-106934000D03*
D25*
X140974000Y-138286000D03*
X136394000Y-138286000D03*
D26*
X138674000Y-145686000D03*
D27*
X139168000Y-127298000D03*
X137668000Y-127298000D03*
X136168000Y-127298000D03*
D28*
X137668000Y-130258000D03*
D10*
G36*
X136668000Y-128783000D02*
X137168000Y-128033000D01*
X138168000Y-128033000D01*
X138668000Y-128783000D01*
X136668000Y-128783000D01*
X136668000Y-128783000D01*
G37*
D29*
X140684000Y-133858000D03*
X136684000Y-133858000D03*
D30*
X114300000Y-125730000D03*
D31*
X111760000Y-125730000D03*
X109220000Y-125730000D03*
X106680000Y-125730000D03*
D30*
X148082000Y-119634000D03*
D31*
X148082000Y-122174000D03*
X148082000Y-124714000D03*
X148082000Y-127254000D03*
D30*
X142798800Y-102565200D03*
D31*
X140258800Y-102565200D03*
X137718800Y-102565200D03*
D30*
X148031200Y-106832400D03*
D31*
X148031200Y-109372400D03*
X148031200Y-111912400D03*
X148031200Y-114452400D03*
D14*
X133944400Y-108508800D03*
X132044400Y-108508800D03*
X132095200Y-110642400D03*
X133995200Y-110642400D03*
X143779200Y-111912400D03*
X145679200Y-111912400D03*
D22*
X144729200Y-110119200D03*
X144729200Y-108219200D03*
D32*
X136187200Y-108534200D03*
X136187200Y-109804200D03*
X136187200Y-111074200D03*
X136187200Y-112344200D03*
X141587200Y-112344200D03*
X141587200Y-111074200D03*
X141587200Y-109804200D03*
X141587200Y-108534200D03*
D33*
X130000000Y-146000000D03*
X130000000Y-104000000D03*
D34*
X124079000Y-136746000D03*
X124079000Y-142146000D03*
X131400000Y-133600000D03*
X131400000Y-139000000D03*
D22*
X129540000Y-115636000D03*
X129540000Y-117536000D03*
D35*
X116890800Y-129336800D03*
X101600000Y-128676400D03*
X123901200Y-109067600D03*
X123901200Y-113559200D03*
X135839200Y-124460000D03*
X135839200Y-121158000D03*
X119938800Y-128727200D03*
X142231000Y-113538000D03*
X134569200Y-111760000D03*
X120142000Y-112877600D03*
X103124000Y-128651000D03*
X143611600Y-119176800D03*
X145542000Y-127508000D03*
X105918000Y-133451600D03*
X107543600Y-133451600D03*
X104140000Y-135128000D03*
X106680000Y-134467600D03*
X104999979Y-118945795D03*
X107950000Y-127762000D03*
X108381800Y-109956600D03*
X112522000Y-109956600D03*
X128270000Y-120142000D03*
X134366000Y-120142000D03*
X137718800Y-110947200D03*
D36*
X116890800Y-129336800D02*
X116890800Y-125679200D01*
X118110000Y-124460000D02*
X123698000Y-124460000D01*
X116890800Y-125679200D02*
X118110000Y-124460000D01*
X126536000Y-127298000D02*
X136168000Y-127298000D01*
X123698000Y-124460000D02*
X126536000Y-127298000D01*
X135839200Y-121158000D02*
X133604000Y-121158000D01*
X132842000Y-120396000D02*
X132842000Y-115011200D01*
X133604000Y-121158000D02*
X132842000Y-120396000D01*
X132842000Y-115011200D02*
X126862800Y-109032000D01*
X126862800Y-109032000D02*
X125476000Y-109032000D01*
D37*
X129540000Y-115636000D02*
X127508000Y-115636000D01*
X125476000Y-115636000D02*
X127508000Y-115636000D01*
D36*
X101600000Y-128363000D02*
X101600000Y-128676400D01*
X101108000Y-126746000D02*
X101108000Y-127871000D01*
X101108000Y-127871000D02*
X101600000Y-128363000D01*
X122428000Y-133588000D02*
X122428000Y-135095000D01*
X122428000Y-135095000D02*
X124079000Y-136746000D01*
X122428000Y-133588000D02*
X121303000Y-133588000D01*
X121303000Y-133588000D02*
X121287000Y-133604000D01*
X121287000Y-133604000D02*
X117348000Y-133604000D01*
X117348000Y-133604000D02*
X116840000Y-133096000D01*
X116840000Y-133096000D02*
X116840000Y-131572000D01*
X124460000Y-133588000D02*
X122428000Y-133588000D01*
X145186400Y-121158000D02*
X146710400Y-119634000D01*
X146710400Y-119634000D02*
X148082000Y-119634000D01*
X135839200Y-121158000D02*
X145186400Y-121158000D01*
D37*
X123901200Y-109067600D02*
X125440400Y-109067600D01*
X125440400Y-109067600D02*
X125476000Y-109032000D01*
X125476000Y-114234000D02*
X124576000Y-114234000D01*
X124576000Y-114234000D02*
X123901200Y-113559200D01*
D36*
X125476000Y-109032000D02*
X125776000Y-109032000D01*
X135839200Y-124460000D02*
X137438000Y-124460000D01*
X137438000Y-124460000D02*
X137692000Y-124714000D01*
X101092000Y-123723400D02*
X102616000Y-122199400D01*
X102616000Y-122199400D02*
X102616000Y-120934000D01*
X101092000Y-124573000D02*
X101092000Y-123723400D01*
X101108000Y-124714000D02*
X101108000Y-124589000D01*
X101108000Y-124589000D02*
X101092000Y-124573000D01*
X101108000Y-124714000D02*
X101108000Y-126746000D01*
X116840000Y-131572000D02*
X116840000Y-129336800D01*
D37*
X125476000Y-109032000D02*
X125476000Y-107630000D01*
X125476000Y-115636000D02*
X125476000Y-114234000D01*
D36*
X136168000Y-127298000D02*
X136168000Y-126238000D01*
X136168000Y-126238000D02*
X137692000Y-124714000D01*
X119938800Y-129263200D02*
X119938800Y-128727200D01*
X119380000Y-131572000D02*
X119380000Y-129822000D01*
X119380000Y-129822000D02*
X119938800Y-129263200D01*
X133800000Y-142350000D02*
X133800000Y-144812000D01*
X133800000Y-144812000D02*
X134674000Y-145686000D01*
X134674000Y-145686000D02*
X138674000Y-145686000D01*
X131400000Y-139000000D02*
X131400000Y-139950000D01*
X131400000Y-139950000D02*
X133800000Y-142350000D01*
X127635000Y-140208000D02*
X125697000Y-142146000D01*
X125697000Y-142146000D02*
X124079000Y-142146000D01*
X127635000Y-132608000D02*
X127635000Y-140208000D01*
X126365000Y-131638000D02*
X126665000Y-131638000D01*
X126665000Y-131638000D02*
X127635000Y-132608000D01*
X121285000Y-130048000D02*
X121920000Y-129413000D01*
X121920000Y-129413000D02*
X121920000Y-127018000D01*
X120751600Y-130048000D02*
X121285000Y-130048000D01*
X119380000Y-131572000D02*
X119380000Y-131419600D01*
X119380000Y-131419600D02*
X120751600Y-130048000D01*
X122428000Y-131588000D02*
X119396000Y-131588000D01*
X119396000Y-131588000D02*
X119380000Y-131572000D01*
X124460000Y-131588000D02*
X122428000Y-131588000D01*
X126365000Y-131638000D02*
X124510000Y-131638000D01*
X124510000Y-131638000D02*
X124460000Y-131588000D01*
X145745200Y-126238000D02*
X144221200Y-124714000D01*
X144221200Y-124714000D02*
X140692000Y-124714000D01*
X147066000Y-126238000D02*
X145745200Y-126238000D01*
X148082000Y-127254000D02*
X147066000Y-126238000D01*
X140692000Y-125147200D02*
X141478000Y-125933200D01*
X141478000Y-125933200D02*
X141478000Y-127024000D01*
X140692000Y-124714000D02*
X140692000Y-125147200D01*
D37*
X141587200Y-112344200D02*
X141587200Y-112894200D01*
X141587200Y-112894200D02*
X142231000Y-113538000D01*
X134212800Y-111760000D02*
X134569200Y-111760000D01*
X133995200Y-110642400D02*
X133995200Y-111542400D01*
X133995200Y-111542400D02*
X134212800Y-111760000D01*
X145730000Y-114452400D02*
X148031200Y-114452400D01*
X121565600Y-112877600D02*
X120142000Y-112877600D01*
X121920000Y-114572000D02*
X121920000Y-113232000D01*
X121920000Y-113232000D02*
X121565600Y-112877600D01*
D36*
X103108000Y-126746000D02*
X103108000Y-128635000D01*
X103108000Y-128635000D02*
X103124000Y-128651000D01*
X146812000Y-146772000D02*
X139760000Y-146772000D01*
X139760000Y-146772000D02*
X138674000Y-145686000D01*
X119364000Y-131588000D02*
X119380000Y-131572000D01*
X103108000Y-126746000D02*
X103108000Y-124714000D01*
X147812000Y-127524000D02*
X148082000Y-127254000D01*
X142264000Y-127024000D02*
X142264000Y-127149000D01*
X142264000Y-127149000D02*
X142639000Y-127524000D01*
X142639000Y-127524000D02*
X143764000Y-127524000D01*
X141478000Y-127024000D02*
X142264000Y-127024000D01*
X141478000Y-127024000D02*
X139442000Y-127024000D01*
X139442000Y-127024000D02*
X139168000Y-127298000D01*
X138674000Y-145686000D02*
X142674000Y-145686000D01*
X142674000Y-145686000D02*
X143764000Y-144596000D01*
X143764000Y-144596000D02*
X143764000Y-140930000D01*
X143764000Y-140930000D02*
X143764000Y-139930000D01*
X146812000Y-144272000D02*
X146812000Y-139678000D01*
X146812000Y-139678000D02*
X144064000Y-136930000D01*
X144064000Y-136930000D02*
X143764000Y-136930000D01*
X140974000Y-138286000D02*
X142408000Y-138286000D01*
X142408000Y-138286000D02*
X143764000Y-136930000D01*
X142621000Y-133858000D02*
X143764000Y-135001000D01*
X143764000Y-135001000D02*
X143764000Y-136930000D01*
X140684000Y-133858000D02*
X142621000Y-133858000D01*
X131400000Y-133600000D02*
X132700000Y-133600000D01*
X136042000Y-130258000D02*
X137668000Y-130258000D01*
X132700000Y-133600000D02*
X136042000Y-130258000D01*
D37*
X141325600Y-119176800D02*
X143611600Y-119176800D01*
X138582400Y-116433600D02*
X141325600Y-119176800D01*
X138582400Y-110514000D02*
X138582400Y-116433600D01*
X141587200Y-108534200D02*
X140562200Y-108534200D01*
X140562200Y-108534200D02*
X138582400Y-110514000D01*
X143611600Y-119176800D02*
X144729200Y-118059200D01*
X144729200Y-118059200D02*
X144729200Y-112166400D01*
X144729200Y-112166400D02*
X144475200Y-111912400D01*
X144475200Y-111912400D02*
X143779200Y-111912400D01*
D36*
X145542000Y-128871000D02*
X145542000Y-127508000D01*
X143764000Y-129524000D02*
X144889000Y-129524000D01*
X144889000Y-129524000D02*
X145542000Y-128871000D01*
D37*
X148031200Y-106832400D02*
X148031200Y-105732400D01*
X148031200Y-105732400D02*
X144864000Y-102565200D01*
X144864000Y-102565200D02*
X143898800Y-102565200D01*
X143898800Y-102565200D02*
X142798800Y-102565200D01*
X141587200Y-107231200D02*
X142798800Y-106019600D01*
X142798800Y-106019600D02*
X142798800Y-102565200D01*
X141587200Y-108534200D02*
X141587200Y-107231200D01*
D36*
X137668000Y-127298000D02*
X137668000Y-128408000D01*
X137668000Y-130258000D02*
X137668000Y-127298000D01*
X141478000Y-130024000D02*
X137902000Y-130024000D01*
X137902000Y-130024000D02*
X137668000Y-130258000D01*
X136684000Y-133858000D02*
X136684000Y-133445000D01*
X136684000Y-133445000D02*
X137668000Y-132461000D01*
X136394000Y-138286000D02*
X136394000Y-136036000D01*
X136394000Y-136036000D02*
X136684000Y-135746000D01*
X136684000Y-135746000D02*
X136684000Y-133858000D01*
X142137000Y-130024000D02*
X142637000Y-129524000D01*
X142637000Y-129524000D02*
X143764000Y-129524000D01*
X141478000Y-130024000D02*
X142137000Y-130024000D01*
X137668000Y-132461000D02*
X137668000Y-130258000D01*
D37*
X105384600Y-106934000D02*
X102616000Y-106934000D01*
X106324400Y-105994200D02*
X105384600Y-106934000D01*
X120267800Y-105994200D02*
X106324400Y-105994200D01*
X121920000Y-105392000D02*
X120870000Y-105392000D01*
X120870000Y-105392000D02*
X120267800Y-105994200D01*
X125476000Y-105730000D02*
X122258000Y-105730000D01*
X122258000Y-105730000D02*
X121920000Y-105392000D01*
X127000000Y-118872000D02*
X127508000Y-118364000D01*
X127508000Y-118364000D02*
X127508000Y-117536000D01*
X124004000Y-118872000D02*
X127000000Y-118872000D01*
X121920000Y-117838000D02*
X122970000Y-117838000D01*
X122970000Y-117838000D02*
X124004000Y-118872000D01*
X119507000Y-116713000D02*
X120632000Y-117838000D01*
X120632000Y-117838000D02*
X121920000Y-117838000D01*
X119507000Y-115189000D02*
X119507000Y-116713000D01*
X119252000Y-114934000D02*
X119507000Y-115189000D01*
X116616000Y-114934000D02*
X119252000Y-114934000D01*
X117094000Y-134620000D02*
X117094000Y-134616020D01*
X117094000Y-134616020D02*
X115698990Y-133221010D01*
X111760000Y-134467600D02*
X111760000Y-133350000D01*
X116616000Y-118934000D02*
X115304800Y-118934000D01*
X115304800Y-118934000D02*
X114960400Y-119278400D01*
X115698990Y-130173010D02*
X115698990Y-133221010D01*
X115062000Y-133858000D02*
X112268000Y-133858000D01*
X114960400Y-119278400D02*
X114960400Y-122936000D01*
X115976400Y-129895600D02*
X115698990Y-130173010D01*
X111760000Y-133350000D02*
X111760000Y-131572000D01*
X114960400Y-122936000D02*
X115976400Y-123952000D01*
X115976400Y-123952000D02*
X115976400Y-129895600D01*
X115698990Y-133221010D02*
X115062000Y-133858000D01*
X112268000Y-133858000D02*
X111760000Y-133350000D01*
X105918000Y-134823200D02*
X105918000Y-133451600D01*
X106730800Y-135636000D02*
X105918000Y-134823200D01*
X110591600Y-135636000D02*
X106730800Y-135636000D01*
X111760000Y-134467600D02*
X110591600Y-135636000D01*
X126365000Y-133538000D02*
X126365000Y-138811000D01*
X126365000Y-138811000D02*
X125730000Y-139446000D01*
X125730000Y-139446000D02*
X121920000Y-139446000D01*
X121920000Y-139446000D02*
X117094000Y-134620000D01*
X148082000Y-124714000D02*
X145491200Y-124714000D01*
X145491200Y-124714000D02*
X144043400Y-123266200D01*
X144043400Y-123266200D02*
X133934200Y-123266200D01*
X133934200Y-123266200D02*
X131572000Y-120904000D01*
X131572000Y-120904000D02*
X131572000Y-117348000D01*
X131572000Y-117348000D02*
X130810000Y-116586000D01*
X130810000Y-116586000D02*
X125730000Y-116586000D01*
X125730000Y-116586000D02*
X125476000Y-116840000D01*
X125476000Y-116840000D02*
X125476000Y-117536000D01*
X123190000Y-116205000D02*
X124521000Y-117536000D01*
X124521000Y-117536000D02*
X125476000Y-117536000D01*
X120650000Y-116205000D02*
X123190000Y-116205000D01*
X120142000Y-115697000D02*
X120650000Y-116205000D01*
X120142000Y-114300000D02*
X120142000Y-115697000D01*
X118872000Y-113030000D02*
X120142000Y-114300000D01*
X117264598Y-113030000D02*
X118872000Y-113030000D01*
X116616000Y-112934000D02*
X117168598Y-112934000D01*
X117168598Y-112934000D02*
X117264598Y-113030000D01*
X132080000Y-115824000D02*
X128590000Y-112334000D01*
X128590000Y-112334000D02*
X125476000Y-112334000D01*
X132080000Y-120650000D02*
X132080000Y-115824000D01*
X133604000Y-122174000D02*
X132080000Y-120650000D01*
X148082000Y-122174000D02*
X133604000Y-122174000D01*
X125476000Y-112334000D02*
X126376000Y-112334000D01*
X119824000Y-110934000D02*
X121224000Y-112334000D01*
X121224000Y-112334000D02*
X125476000Y-112334000D01*
X116616000Y-110934000D02*
X119824000Y-110934000D01*
X108840400Y-133451600D02*
X107543600Y-133451600D01*
X109220000Y-131572000D02*
X109220000Y-133072000D01*
X109220000Y-133072000D02*
X108840400Y-133451600D01*
X106324400Y-116332000D02*
X104926400Y-114934000D01*
X104926400Y-114934000D02*
X104393000Y-114934000D01*
X106324400Y-119786400D02*
X106324400Y-116332000D01*
X105206800Y-120904000D02*
X106324400Y-119786400D01*
X105206800Y-126898400D02*
X105206800Y-120904000D01*
X105867200Y-127558800D02*
X105206800Y-126898400D01*
X106472800Y-127558800D02*
X105867200Y-127558800D01*
X109220000Y-131572000D02*
X109220000Y-130306000D01*
X109220000Y-130306000D02*
X106472800Y-127558800D01*
X104393000Y-114934000D02*
X102616000Y-114934000D01*
X109220000Y-131572000D02*
X109220000Y-131419600D01*
X104140000Y-131572000D02*
X104140000Y-135128000D01*
X104130989Y-118448989D02*
X102616000Y-116934000D01*
X104130989Y-128308547D02*
X104130989Y-118448989D01*
X104140000Y-128317558D02*
X104130989Y-128308547D01*
X104140000Y-131572000D02*
X104140000Y-128317558D01*
X106680000Y-133072000D02*
X106680000Y-134467600D01*
X106680000Y-131572000D02*
X106680000Y-133072000D01*
X104699980Y-127763180D02*
X106680000Y-129743200D01*
X106680000Y-129743200D02*
X106680000Y-131572000D01*
X104999979Y-118945795D02*
X104699980Y-119245794D01*
X104699980Y-119245794D02*
X104699980Y-127763180D01*
X107950000Y-127762000D02*
X107950000Y-128186264D01*
X107950000Y-128186264D02*
X108763736Y-129000000D01*
X108763736Y-129000000D02*
X113506000Y-129000000D01*
X113506000Y-129000000D02*
X114300000Y-129794000D01*
X114300000Y-129794000D02*
X114300000Y-131572000D01*
X108000000Y-126178554D02*
X107950000Y-126228554D01*
X107950000Y-126228554D02*
X107950000Y-127762000D01*
X102616000Y-112934000D02*
X103934000Y-112934000D01*
X103934000Y-112934000D02*
X108000000Y-117000000D01*
X108000000Y-117000000D02*
X108000000Y-126178554D01*
X126441200Y-106883200D02*
X130200400Y-110642400D01*
X130200400Y-110642400D02*
X132095200Y-110642400D01*
X123952000Y-106883200D02*
X126441200Y-106883200D01*
X123952000Y-106883200D02*
X121901200Y-108934000D01*
X121901200Y-108934000D02*
X116616000Y-108934000D01*
X132044400Y-108508800D02*
X132044400Y-110591600D01*
X132044400Y-110591600D02*
X132095200Y-110642400D01*
X112147600Y-108934000D02*
X111760000Y-109321600D01*
X111760000Y-109321600D02*
X111760000Y-125730000D01*
X116616000Y-108934000D02*
X112147600Y-108934000D01*
X135162200Y-112344200D02*
X136187200Y-112344200D01*
X133045200Y-107950000D02*
X133045200Y-111709200D01*
X131252094Y-107569000D02*
X132664200Y-107569000D01*
X133045200Y-111709200D02*
X133680200Y-112344200D01*
X132664200Y-107569000D02*
X133045200Y-107950000D01*
X130849684Y-107971411D02*
X131252094Y-107569000D01*
X126746000Y-106426000D02*
X128291411Y-107971411D01*
X123494800Y-106426000D02*
X126746000Y-106426000D01*
X122986800Y-106934000D02*
X123494800Y-106426000D01*
X133680200Y-112344200D02*
X135162200Y-112344200D01*
X128291411Y-107971411D02*
X130849684Y-107971411D01*
X116616000Y-106934000D02*
X122986800Y-106934000D01*
X109220000Y-109448600D02*
X109220000Y-125730000D01*
X111734600Y-106934000D02*
X109220000Y-109448600D01*
X116616000Y-106934000D02*
X111734600Y-106934000D01*
X108381800Y-109956600D02*
X105384600Y-109956600D01*
X112522000Y-109956600D02*
X119761000Y-109956600D01*
X119761000Y-109956600D02*
X120736400Y-110932000D01*
X120736400Y-110932000D02*
X125476000Y-110932000D01*
X105384600Y-109956600D02*
X104407200Y-110934000D01*
X104407200Y-110934000D02*
X102616000Y-110934000D01*
X136187200Y-109804200D02*
X136187200Y-111074200D01*
X138633200Y-109067600D02*
X137896600Y-109804200D01*
X137896600Y-109804200D02*
X136187200Y-109804200D01*
X138633200Y-105392881D02*
X138633200Y-109067600D01*
X140258800Y-102565200D02*
X140258800Y-103767281D01*
X140258800Y-103767281D02*
X138633200Y-105392881D01*
X137718800Y-116789200D02*
X134366000Y-120142000D01*
X137718800Y-110947200D02*
X137718800Y-116789200D01*
X128270000Y-120142000D02*
X129540000Y-118872000D01*
X129540000Y-118872000D02*
X129540000Y-117536000D01*
X120904000Y-120142000D02*
X128270000Y-120142000D01*
X120142000Y-119380000D02*
X120904000Y-120142000D01*
X120142000Y-118872000D02*
X120142000Y-119380000D01*
X118204000Y-116934000D02*
X120142000Y-118872000D01*
X116616000Y-116934000D02*
X118204000Y-116934000D01*
X143830000Y-114452400D02*
X140817600Y-114452400D01*
X140335000Y-109804200D02*
X141587200Y-109804200D01*
X140817600Y-114452400D02*
X139801600Y-113436400D01*
X139801600Y-113436400D02*
X139801600Y-110337600D01*
X139801600Y-110337600D02*
X140335000Y-109804200D01*
X148031200Y-109372400D02*
X146878000Y-108219200D01*
X146878000Y-108219200D02*
X144729200Y-108219200D01*
X141587200Y-109804200D02*
X142062200Y-109804200D01*
X142062200Y-109804200D02*
X143647200Y-108219200D01*
X143647200Y-108219200D02*
X144729200Y-108219200D01*
X145679200Y-111912400D02*
X145679200Y-111069200D01*
X145679200Y-111069200D02*
X144729200Y-110119200D01*
X145679200Y-111912400D02*
X148031200Y-111912400D01*
X141587200Y-111074200D02*
X142612200Y-111074200D01*
X142612200Y-111074200D02*
X143567200Y-110119200D01*
X143567200Y-110119200D02*
X143829200Y-110119200D01*
X143829200Y-110119200D02*
X144729200Y-110119200D01*
X136187200Y-108534200D02*
X133969800Y-108534200D01*
X133969800Y-108534200D02*
X133944400Y-108508800D01*
M02*
