G04 #@! TF.FileFunction,Copper,L2,Bot,Mixed*
%FSLAX46Y46*%
G04 Gerber Fmt 4.6, Leading zero omitted, Abs format (unit mm)*
G04 Created by KiCad (PCBNEW 4.0.2-stable) date 6/15/2017 12:31:11 PM*
%MOMM*%
G01*
G04 APERTURE LIST*
%ADD10C,0.100000*%
%ADD11C,0.150000*%
%ADD12O,0.900000X1.600000*%
%ADD13R,1.500000X1.500000*%
%ADD14C,1.500000*%
%ADD15R,2.500000X1.100000*%
%ADD16O,2.500000X1.100000*%
%ADD17R,1.700000X1.700000*%
%ADD18O,1.700000X1.700000*%
%ADD19C,5.600000*%
%ADD20C,0.600000*%
%ADD21C,0.500000*%
%ADD22C,0.250000*%
%ADD23C,0.200000*%
G04 APERTURE END LIST*
D10*
D11*
X100000000Y-100000000D02*
X100000000Y-150000000D01*
X150000000Y-100000000D02*
X100000000Y-100000000D01*
X150000000Y-150000000D02*
X150000000Y-100000000D01*
X100000000Y-150000000D02*
X150000000Y-150000000D01*
D12*
X102108000Y-131826000D03*
X103378000Y-131826000D03*
X104648000Y-131826000D03*
X105918000Y-131826000D03*
X107188000Y-131826000D03*
X108458000Y-131826000D03*
X109728000Y-131826000D03*
X110998000Y-131826000D03*
D13*
X146812000Y-144272000D03*
D14*
X146812000Y-146772000D03*
D15*
X101916000Y-106934000D03*
D16*
X101916000Y-108934000D03*
X101916000Y-110934000D03*
X101916000Y-112934000D03*
X101916000Y-114934000D03*
X101916000Y-116934000D03*
X101916000Y-118934000D03*
X101916000Y-120934000D03*
X117316000Y-120934000D03*
X117216000Y-118934000D03*
X117316000Y-116934000D03*
X117316000Y-114934000D03*
X117316000Y-112934000D03*
X117316000Y-110934000D03*
X117316000Y-108934000D03*
X117316000Y-106934000D03*
D17*
X114300000Y-125730000D03*
D18*
X111760000Y-125730000D03*
X109220000Y-125730000D03*
X106680000Y-125730000D03*
D17*
X148082000Y-119634000D03*
D18*
X148082000Y-122174000D03*
X148082000Y-124714000D03*
X148082000Y-127254000D03*
D17*
X142798800Y-102565200D03*
D18*
X140258800Y-102565200D03*
X137718800Y-102565200D03*
D17*
X148031200Y-106832400D03*
D18*
X148031200Y-109372400D03*
X148031200Y-111912400D03*
X148031200Y-114452400D03*
D19*
X130000000Y-146000000D03*
X130000000Y-104000000D03*
D20*
X116890800Y-129336800D03*
X101600000Y-128676400D03*
X123901200Y-109067600D03*
X123901200Y-113559200D03*
X135839200Y-124460000D03*
X135839200Y-121158000D03*
X119938800Y-128727200D03*
X142231000Y-113538000D03*
X134569200Y-111760000D03*
X120142000Y-112877600D03*
X103124000Y-128651000D03*
X143611600Y-119176800D03*
X145542000Y-127508000D03*
X105918000Y-133451600D03*
X107543600Y-133451600D03*
X104140000Y-135128000D03*
X106680000Y-134467600D03*
X104999979Y-118945795D03*
X107950000Y-127762000D03*
X108381800Y-109956600D03*
X112522000Y-109956600D03*
X128270000Y-120142000D03*
X134366000Y-120142000D03*
X137718800Y-110947200D03*
D21*
X115722400Y-129336800D02*
X116890800Y-129336800D01*
X114300000Y-127914400D02*
X115722400Y-129336800D01*
X114300000Y-127609600D02*
X114300000Y-127914400D01*
X101600000Y-129794000D02*
X101600000Y-128676400D01*
X102108000Y-130302000D02*
X101600000Y-129794000D01*
X102108000Y-131826000D02*
X102108000Y-130302000D01*
D22*
X123901200Y-113559200D02*
X123901200Y-109067600D01*
D21*
X135839200Y-121158000D02*
X135839200Y-124460000D01*
X114300000Y-125730000D02*
X114300000Y-124380000D01*
X114300000Y-124380000D02*
X110854000Y-120934000D01*
X110854000Y-120934000D02*
X102616000Y-120934000D01*
X114300000Y-127609600D02*
X114300000Y-125730000D01*
X103124000Y-129997200D02*
X103378000Y-130251200D01*
X103378000Y-130251200D02*
X103378000Y-131826000D01*
X103124000Y-128651000D02*
X103124000Y-129997200D01*
X105206800Y-128651000D02*
X103124000Y-128651000D01*
X106680000Y-127177800D02*
X105206800Y-128651000D01*
X106680000Y-126932081D02*
X106680000Y-127177800D01*
X106680000Y-125730000D02*
X106680000Y-126932081D01*
X145542000Y-121107200D02*
X143611600Y-119176800D01*
X145542000Y-127508000D02*
X145542000Y-121107200D01*
D22*
X105918000Y-131826000D02*
X105918000Y-133451600D01*
X107188000Y-131826000D02*
X107188000Y-133096000D01*
X107188000Y-133096000D02*
X107543600Y-133451600D01*
X109321600Y-135128000D02*
X104140000Y-135128000D01*
X109728000Y-134721600D02*
X109321600Y-135128000D01*
X109728000Y-131826000D02*
X109728000Y-134721600D01*
X108458000Y-131826000D02*
X108458000Y-134061200D01*
X108458000Y-134061200D02*
X108051600Y-134467600D01*
X108051600Y-134467600D02*
X106680000Y-134467600D01*
X102627795Y-118945795D02*
X104575715Y-118945795D01*
X104575715Y-118945795D02*
X104999979Y-118945795D01*
X102616000Y-118934000D02*
X102627795Y-118945795D01*
X107662000Y-127762000D02*
X107950000Y-127762000D01*
X104648000Y-131826000D02*
X104648000Y-130776000D01*
X104648000Y-130776000D02*
X107662000Y-127762000D01*
X108381800Y-109956600D02*
X108806064Y-109956600D01*
X108806064Y-109956600D02*
X112522000Y-109956600D01*
X134366000Y-120142000D02*
X128270000Y-120142000D01*
X137718800Y-102565200D02*
X137718800Y-110947200D01*
D23*
G36*
X149506000Y-149506000D02*
X120623000Y-149506000D01*
X120623000Y-148226758D01*
X127808597Y-148226758D01*
X128132485Y-148612946D01*
X129274572Y-149128714D01*
X130527099Y-149168164D01*
X131699380Y-148725290D01*
X131867515Y-148612946D01*
X132191403Y-148226758D01*
X130000000Y-146035355D01*
X127808597Y-148226758D01*
X120623000Y-148226758D01*
X120623000Y-146527099D01*
X126831836Y-146527099D01*
X127274710Y-147699380D01*
X127387054Y-147867515D01*
X127773242Y-148191403D01*
X129964645Y-146000000D01*
X130035355Y-146000000D01*
X132226758Y-148191403D01*
X132612946Y-147867515D01*
X132769591Y-147520648D01*
X146098707Y-147520648D01*
X146173159Y-147693822D01*
X146574554Y-147868127D01*
X147012098Y-147875555D01*
X147419178Y-147714978D01*
X147450841Y-147693822D01*
X147525293Y-147520648D01*
X146812000Y-146807355D01*
X146098707Y-147520648D01*
X132769591Y-147520648D01*
X133017317Y-146972098D01*
X145708445Y-146972098D01*
X145869022Y-147379178D01*
X145890178Y-147410841D01*
X146063352Y-147485293D01*
X146776645Y-146772000D01*
X146847355Y-146772000D01*
X147560648Y-147485293D01*
X147733822Y-147410841D01*
X147908127Y-147009446D01*
X147915555Y-146571902D01*
X147754978Y-146164822D01*
X147733822Y-146133159D01*
X147560648Y-146058707D01*
X146847355Y-146772000D01*
X146776645Y-146772000D01*
X146063352Y-146058707D01*
X145890178Y-146133159D01*
X145715873Y-146534554D01*
X145708445Y-146972098D01*
X133017317Y-146972098D01*
X133128714Y-146725428D01*
X133150826Y-146023352D01*
X146098707Y-146023352D01*
X146812000Y-146736645D01*
X147525293Y-146023352D01*
X147450841Y-145850178D01*
X147049446Y-145675873D01*
X146611902Y-145668445D01*
X146204822Y-145829022D01*
X146173159Y-145850178D01*
X146098707Y-146023352D01*
X133150826Y-146023352D01*
X133168164Y-145472901D01*
X132725290Y-144300620D01*
X132612946Y-144132485D01*
X132226758Y-143808597D01*
X130035355Y-146000000D01*
X129964645Y-146000000D01*
X127773242Y-143808597D01*
X127387054Y-144132485D01*
X126871286Y-145274572D01*
X126831836Y-146527099D01*
X120623000Y-146527099D01*
X120623000Y-143773242D01*
X127808597Y-143773242D01*
X130000000Y-145964645D01*
X132191403Y-143773242D01*
X131980692Y-143522000D01*
X145705144Y-143522000D01*
X145705144Y-145022000D01*
X145729549Y-145151702D01*
X145806203Y-145270825D01*
X145923163Y-145350741D01*
X146062000Y-145378856D01*
X147562000Y-145378856D01*
X147691702Y-145354451D01*
X147810825Y-145277797D01*
X147890741Y-145160837D01*
X147918856Y-145022000D01*
X147918856Y-143522000D01*
X147894451Y-143392298D01*
X147817797Y-143273175D01*
X147700837Y-143193259D01*
X147562000Y-143165144D01*
X146062000Y-143165144D01*
X145932298Y-143189549D01*
X145813175Y-143266203D01*
X145733259Y-143383163D01*
X145705144Y-143522000D01*
X131980692Y-143522000D01*
X131867515Y-143387054D01*
X130725428Y-142871286D01*
X129472901Y-142831836D01*
X128300620Y-143274710D01*
X128132485Y-143387054D01*
X127808597Y-143773242D01*
X120623000Y-143773242D01*
X120623000Y-143510000D01*
X120616161Y-143473654D01*
X120594681Y-143440273D01*
X120561906Y-143417879D01*
X120523000Y-143410000D01*
X100541073Y-143410000D01*
X100503529Y-128805126D01*
X100949888Y-128805126D01*
X101000000Y-128926406D01*
X101000000Y-129794000D01*
X101045672Y-130023610D01*
X101175736Y-130218264D01*
X101508000Y-130550528D01*
X101508000Y-130939141D01*
X101368896Y-131147323D01*
X101308000Y-131453470D01*
X101308000Y-132198530D01*
X101368896Y-132504677D01*
X101542315Y-132764215D01*
X101801853Y-132937634D01*
X102108000Y-132998530D01*
X102414147Y-132937634D01*
X102673685Y-132764215D01*
X102750904Y-132648650D01*
X102829992Y-132759364D01*
X103094950Y-132924672D01*
X103228221Y-132961854D01*
X103353000Y-132888061D01*
X103353000Y-131851000D01*
X103333000Y-131851000D01*
X103333000Y-131801000D01*
X103353000Y-131801000D01*
X103353000Y-130763939D01*
X103403000Y-130763939D01*
X103403000Y-131801000D01*
X103423000Y-131801000D01*
X103423000Y-131851000D01*
X103403000Y-131851000D01*
X103403000Y-132888061D01*
X103527779Y-132961854D01*
X103661050Y-132924672D01*
X103926008Y-132759364D01*
X104005096Y-132648650D01*
X104082315Y-132764215D01*
X104341853Y-132937634D01*
X104648000Y-132998530D01*
X104954147Y-132937634D01*
X105213685Y-132764215D01*
X105283000Y-132660479D01*
X105352315Y-132764215D01*
X105443000Y-132824809D01*
X105443000Y-133007334D01*
X105367278Y-133082924D01*
X105268113Y-133321740D01*
X105267888Y-133580326D01*
X105366636Y-133819314D01*
X105549324Y-134002322D01*
X105788140Y-134101487D01*
X106046726Y-134101712D01*
X106182814Y-134045481D01*
X106129278Y-134098924D01*
X106030113Y-134337740D01*
X106029888Y-134596326D01*
X106053305Y-134653000D01*
X104584266Y-134653000D01*
X104508676Y-134577278D01*
X104269860Y-134478113D01*
X104011274Y-134477888D01*
X103772286Y-134576636D01*
X103589278Y-134759324D01*
X103490113Y-134998140D01*
X103489888Y-135256726D01*
X103588636Y-135495714D01*
X103771324Y-135678722D01*
X104010140Y-135777887D01*
X104268726Y-135778112D01*
X104507714Y-135679364D01*
X104584212Y-135603000D01*
X109321600Y-135603000D01*
X109503375Y-135566843D01*
X109657476Y-135463876D01*
X110063873Y-135057478D01*
X110063876Y-135057476D01*
X110166843Y-134903375D01*
X110203000Y-134721600D01*
X110203000Y-132824809D01*
X110293685Y-132764215D01*
X110363000Y-132660479D01*
X110432315Y-132764215D01*
X110691853Y-132937634D01*
X110998000Y-132998530D01*
X111304147Y-132937634D01*
X111563685Y-132764215D01*
X111737104Y-132504677D01*
X111798000Y-132198530D01*
X111798000Y-131453470D01*
X111737104Y-131147323D01*
X111563685Y-130887785D01*
X111304147Y-130714366D01*
X110998000Y-130653470D01*
X110691853Y-130714366D01*
X110432315Y-130887785D01*
X110363000Y-130991521D01*
X110293685Y-130887785D01*
X110034147Y-130714366D01*
X109728000Y-130653470D01*
X109421853Y-130714366D01*
X109162315Y-130887785D01*
X109093000Y-130991521D01*
X109023685Y-130887785D01*
X108764147Y-130714366D01*
X108458000Y-130653470D01*
X108151853Y-130714366D01*
X107892315Y-130887785D01*
X107823000Y-130991521D01*
X107753685Y-130887785D01*
X107494147Y-130714366D01*
X107188000Y-130653470D01*
X106881853Y-130714366D01*
X106622315Y-130887785D01*
X106553000Y-130991521D01*
X106483685Y-130887785D01*
X106224147Y-130714366D01*
X105918000Y-130653470D01*
X105611853Y-130714366D01*
X105352315Y-130887785D01*
X105283000Y-130991521D01*
X105213685Y-130887785D01*
X105210257Y-130885495D01*
X107723848Y-128371903D01*
X107820140Y-128411887D01*
X108078726Y-128412112D01*
X108317714Y-128313364D01*
X108500722Y-128130676D01*
X108599887Y-127891860D01*
X108600112Y-127633274D01*
X108501364Y-127394286D01*
X108318676Y-127211278D01*
X108079860Y-127112113D01*
X107821274Y-127111888D01*
X107582286Y-127210636D01*
X107447994Y-127344693D01*
X107326124Y-127426124D01*
X107326122Y-127426127D01*
X104312124Y-130440124D01*
X104209157Y-130594225D01*
X104173000Y-130776000D01*
X104173000Y-130827191D01*
X104082315Y-130887785D01*
X104005096Y-131003350D01*
X103926008Y-130892636D01*
X103661050Y-130727328D01*
X103527779Y-130690146D01*
X103403000Y-130763939D01*
X103353000Y-130763939D01*
X103228221Y-130690146D01*
X103094950Y-130727328D01*
X102829992Y-130892636D01*
X102750904Y-131003350D01*
X102708000Y-130939141D01*
X102708000Y-130302000D01*
X102662328Y-130072390D01*
X102662328Y-130072389D01*
X102532264Y-129877736D01*
X102200000Y-129545472D01*
X102200000Y-128926401D01*
X102249887Y-128806260D01*
X102250112Y-128547674D01*
X102151364Y-128308686D01*
X101968676Y-128125678D01*
X101729860Y-128026513D01*
X101471274Y-128026288D01*
X101232286Y-128125036D01*
X101049278Y-128307724D01*
X100950113Y-128546540D01*
X100949888Y-128805126D01*
X100503529Y-128805126D01*
X100496170Y-125942373D01*
X105498940Y-125942373D01*
X105670114Y-126378179D01*
X105995034Y-126715306D01*
X106424234Y-126902429D01*
X106467627Y-126911058D01*
X106655000Y-126842219D01*
X106655000Y-125755000D01*
X106705000Y-125755000D01*
X106705000Y-126842219D01*
X106892373Y-126911058D01*
X106935766Y-126902429D01*
X107364966Y-126715306D01*
X107689886Y-126378179D01*
X107861060Y-125942373D01*
X107792242Y-125755000D01*
X106705000Y-125755000D01*
X106655000Y-125755000D01*
X105567758Y-125755000D01*
X105498940Y-125942373D01*
X100496170Y-125942373D01*
X100495564Y-125706491D01*
X108020000Y-125706491D01*
X108020000Y-125753509D01*
X108111345Y-126212729D01*
X108371472Y-126602037D01*
X108760780Y-126862164D01*
X109220000Y-126953509D01*
X109679220Y-126862164D01*
X110068528Y-126602037D01*
X110328655Y-126212729D01*
X110420000Y-125753509D01*
X110420000Y-125706491D01*
X110560000Y-125706491D01*
X110560000Y-125753509D01*
X110651345Y-126212729D01*
X110911472Y-126602037D01*
X111300780Y-126862164D01*
X111760000Y-126953509D01*
X112219220Y-126862164D01*
X112608528Y-126602037D01*
X112868655Y-126212729D01*
X112960000Y-125753509D01*
X112960000Y-125706491D01*
X112868655Y-125247271D01*
X112608528Y-124857963D01*
X112219220Y-124597836D01*
X111760000Y-124506491D01*
X111300780Y-124597836D01*
X110911472Y-124857963D01*
X110651345Y-125247271D01*
X110560000Y-125706491D01*
X110420000Y-125706491D01*
X110328655Y-125247271D01*
X110068528Y-124857963D01*
X109679220Y-124597836D01*
X109220000Y-124506491D01*
X108760780Y-124597836D01*
X108371472Y-124857963D01*
X108111345Y-125247271D01*
X108020000Y-125706491D01*
X100495564Y-125706491D01*
X100495078Y-125517627D01*
X105498940Y-125517627D01*
X105567758Y-125705000D01*
X106655000Y-125705000D01*
X106655000Y-124617781D01*
X106705000Y-124617781D01*
X106705000Y-125705000D01*
X107792242Y-125705000D01*
X107861060Y-125517627D01*
X107689886Y-125081821D01*
X107364966Y-124744694D01*
X106935766Y-124557571D01*
X106892373Y-124548942D01*
X106705000Y-124617781D01*
X106655000Y-124617781D01*
X106467627Y-124548942D01*
X106424234Y-124557571D01*
X105995034Y-124744694D01*
X105670114Y-125081821D01*
X105498940Y-125517627D01*
X100495078Y-125517627D01*
X100484685Y-121475253D01*
X100548258Y-121570396D01*
X100840239Y-121765492D01*
X101184654Y-121834000D01*
X102647346Y-121834000D01*
X102991761Y-121765492D01*
X103283742Y-121570396D01*
X103308061Y-121534000D01*
X110605472Y-121534000D01*
X113594616Y-124523144D01*
X113450000Y-124523144D01*
X113320298Y-124547549D01*
X113201175Y-124624203D01*
X113121259Y-124741163D01*
X113093144Y-124880000D01*
X113093144Y-126580000D01*
X113117549Y-126709702D01*
X113194203Y-126828825D01*
X113311163Y-126908741D01*
X113450000Y-126936856D01*
X113700000Y-126936856D01*
X113700000Y-127914400D01*
X113745672Y-128144010D01*
X113875736Y-128338664D01*
X115298136Y-129761064D01*
X115492789Y-129891128D01*
X115722400Y-129936800D01*
X116640799Y-129936800D01*
X116760940Y-129986687D01*
X117019526Y-129986912D01*
X117258514Y-129888164D01*
X117441522Y-129705476D01*
X117540687Y-129466660D01*
X117540912Y-129208074D01*
X117442164Y-128969086D01*
X117259476Y-128786078D01*
X117020660Y-128686913D01*
X116762074Y-128686688D01*
X116640794Y-128736800D01*
X115970928Y-128736800D01*
X114900000Y-127665872D01*
X114900000Y-126936856D01*
X115150000Y-126936856D01*
X115279702Y-126912451D01*
X115398825Y-126835797D01*
X115478741Y-126718837D01*
X115506856Y-126580000D01*
X115506856Y-124880000D01*
X115482451Y-124750298D01*
X115405797Y-124631175D01*
X115288837Y-124551259D01*
X115150000Y-124523144D01*
X114900000Y-124523144D01*
X114900000Y-124380000D01*
X114854328Y-124150390D01*
X114724264Y-123955736D01*
X111867957Y-121099429D01*
X115731334Y-121099429D01*
X115774941Y-121255318D01*
X115961926Y-121552718D01*
X116248488Y-121755924D01*
X116591000Y-121834000D01*
X117291000Y-121834000D01*
X117291000Y-120959000D01*
X117341000Y-120959000D01*
X117341000Y-121834000D01*
X118041000Y-121834000D01*
X118383512Y-121755924D01*
X118670074Y-121552718D01*
X118837311Y-121286726D01*
X135189088Y-121286726D01*
X135239200Y-121408006D01*
X135239200Y-124209999D01*
X135189313Y-124330140D01*
X135189088Y-124588726D01*
X135287836Y-124827714D01*
X135470524Y-125010722D01*
X135709340Y-125109887D01*
X135967926Y-125110112D01*
X136206914Y-125011364D01*
X136389922Y-124828676D01*
X136489087Y-124589860D01*
X136489312Y-124331274D01*
X136439200Y-124209994D01*
X136439200Y-121408001D01*
X136489087Y-121287860D01*
X136489312Y-121029274D01*
X136390564Y-120790286D01*
X136207876Y-120607278D01*
X135969060Y-120508113D01*
X135710474Y-120507888D01*
X135471486Y-120606636D01*
X135288478Y-120789324D01*
X135189313Y-121028140D01*
X135189088Y-121286726D01*
X118837311Y-121286726D01*
X118857059Y-121255318D01*
X118900666Y-121099429D01*
X118828115Y-120959000D01*
X117341000Y-120959000D01*
X117291000Y-120959000D01*
X115803885Y-120959000D01*
X115731334Y-121099429D01*
X111867957Y-121099429D01*
X111537099Y-120768571D01*
X115731334Y-120768571D01*
X115803885Y-120909000D01*
X117291000Y-120909000D01*
X117291000Y-120034000D01*
X117341000Y-120034000D01*
X117341000Y-120909000D01*
X118828115Y-120909000D01*
X118900666Y-120768571D01*
X118857059Y-120612682D01*
X118670074Y-120315282D01*
X118607241Y-120270726D01*
X127619888Y-120270726D01*
X127718636Y-120509714D01*
X127901324Y-120692722D01*
X128140140Y-120791887D01*
X128398726Y-120792112D01*
X128637714Y-120693364D01*
X128714212Y-120617000D01*
X133921734Y-120617000D01*
X133997324Y-120692722D01*
X134236140Y-120791887D01*
X134494726Y-120792112D01*
X134733714Y-120693364D01*
X134916722Y-120510676D01*
X135015887Y-120271860D01*
X135016112Y-120013274D01*
X134917364Y-119774286D01*
X134734676Y-119591278D01*
X134495860Y-119492113D01*
X134237274Y-119491888D01*
X133998286Y-119590636D01*
X133921788Y-119667000D01*
X128714266Y-119667000D01*
X128638676Y-119591278D01*
X128399860Y-119492113D01*
X128141274Y-119491888D01*
X127902286Y-119590636D01*
X127719278Y-119773324D01*
X127620113Y-120012140D01*
X127619888Y-120270726D01*
X118607241Y-120270726D01*
X118383512Y-120112076D01*
X118041000Y-120034000D01*
X117341000Y-120034000D01*
X117291000Y-120034000D01*
X116591000Y-120034000D01*
X116248488Y-120112076D01*
X115961926Y-120315282D01*
X115774941Y-120612682D01*
X115731334Y-120768571D01*
X111537099Y-120768571D01*
X111278264Y-120509736D01*
X111083610Y-120379672D01*
X110854000Y-120334000D01*
X103308061Y-120334000D01*
X103283742Y-120297604D01*
X102991761Y-120102508D01*
X102647346Y-120034000D01*
X101184654Y-120034000D01*
X100840239Y-120102508D01*
X100548258Y-120297604D01*
X100481913Y-120396896D01*
X100479524Y-119467529D01*
X100548258Y-119570396D01*
X100840239Y-119765492D01*
X101184654Y-119834000D01*
X102647346Y-119834000D01*
X102991761Y-119765492D01*
X103283742Y-119570396D01*
X103383702Y-119420795D01*
X104555713Y-119420795D01*
X104631303Y-119496517D01*
X104870119Y-119595682D01*
X105128705Y-119595907D01*
X105367693Y-119497159D01*
X105550701Y-119314471D01*
X105649866Y-119075655D01*
X105649989Y-118934000D01*
X115584654Y-118934000D01*
X115653162Y-119278415D01*
X115848258Y-119570396D01*
X116140239Y-119765492D01*
X116484654Y-119834000D01*
X117947346Y-119834000D01*
X118291761Y-119765492D01*
X118583742Y-119570396D01*
X118760722Y-119305526D01*
X142961488Y-119305526D01*
X143060236Y-119544514D01*
X143242924Y-119727522D01*
X143364118Y-119777846D01*
X144942000Y-121355728D01*
X144942000Y-127257999D01*
X144892113Y-127378140D01*
X144891888Y-127636726D01*
X144990636Y-127875714D01*
X145173324Y-128058722D01*
X145412140Y-128157887D01*
X145670726Y-128158112D01*
X145909714Y-128059364D01*
X146092722Y-127876676D01*
X146191887Y-127637860D01*
X146192036Y-127466373D01*
X146900942Y-127466373D01*
X146909571Y-127509766D01*
X147096694Y-127938966D01*
X147433821Y-128263886D01*
X147869627Y-128435060D01*
X148057000Y-128366242D01*
X148057000Y-127279000D01*
X148107000Y-127279000D01*
X148107000Y-128366242D01*
X148294373Y-128435060D01*
X148730179Y-128263886D01*
X149067306Y-127938966D01*
X149254429Y-127509766D01*
X149263058Y-127466373D01*
X149194219Y-127279000D01*
X148107000Y-127279000D01*
X148057000Y-127279000D01*
X146969781Y-127279000D01*
X146900942Y-127466373D01*
X146192036Y-127466373D01*
X146192112Y-127379274D01*
X146142000Y-127257994D01*
X146142000Y-127041627D01*
X146900942Y-127041627D01*
X146969781Y-127229000D01*
X148057000Y-127229000D01*
X148057000Y-126141758D01*
X148107000Y-126141758D01*
X148107000Y-127229000D01*
X149194219Y-127229000D01*
X149263058Y-127041627D01*
X149254429Y-126998234D01*
X149067306Y-126569034D01*
X148730179Y-126244114D01*
X148294373Y-126072940D01*
X148107000Y-126141758D01*
X148057000Y-126141758D01*
X147869627Y-126072940D01*
X147433821Y-126244114D01*
X147096694Y-126569034D01*
X146909571Y-126998234D01*
X146900942Y-127041627D01*
X146142000Y-127041627D01*
X146142000Y-124714000D01*
X146858491Y-124714000D01*
X146949836Y-125173220D01*
X147209963Y-125562528D01*
X147599271Y-125822655D01*
X148058491Y-125914000D01*
X148105509Y-125914000D01*
X148564729Y-125822655D01*
X148954037Y-125562528D01*
X149214164Y-125173220D01*
X149305509Y-124714000D01*
X149214164Y-124254780D01*
X148954037Y-123865472D01*
X148564729Y-123605345D01*
X148105509Y-123514000D01*
X148058491Y-123514000D01*
X147599271Y-123605345D01*
X147209963Y-123865472D01*
X146949836Y-124254780D01*
X146858491Y-124714000D01*
X146142000Y-124714000D01*
X146142000Y-122174000D01*
X146858491Y-122174000D01*
X146949836Y-122633220D01*
X147209963Y-123022528D01*
X147599271Y-123282655D01*
X148058491Y-123374000D01*
X148105509Y-123374000D01*
X148564729Y-123282655D01*
X148954037Y-123022528D01*
X149214164Y-122633220D01*
X149305509Y-122174000D01*
X149214164Y-121714780D01*
X148954037Y-121325472D01*
X148564729Y-121065345D01*
X148105509Y-120974000D01*
X148058491Y-120974000D01*
X147599271Y-121065345D01*
X147209963Y-121325472D01*
X146949836Y-121714780D01*
X146858491Y-122174000D01*
X146142000Y-122174000D01*
X146142000Y-121107200D01*
X146096328Y-120877590D01*
X145966264Y-120682936D01*
X144212641Y-118929313D01*
X144162964Y-118809086D01*
X144137922Y-118784000D01*
X146875144Y-118784000D01*
X146875144Y-120484000D01*
X146899549Y-120613702D01*
X146976203Y-120732825D01*
X147093163Y-120812741D01*
X147232000Y-120840856D01*
X148932000Y-120840856D01*
X149061702Y-120816451D01*
X149180825Y-120739797D01*
X149260741Y-120622837D01*
X149288856Y-120484000D01*
X149288856Y-118784000D01*
X149264451Y-118654298D01*
X149187797Y-118535175D01*
X149070837Y-118455259D01*
X148932000Y-118427144D01*
X147232000Y-118427144D01*
X147102298Y-118451549D01*
X146983175Y-118528203D01*
X146903259Y-118645163D01*
X146875144Y-118784000D01*
X144137922Y-118784000D01*
X143980276Y-118626078D01*
X143741460Y-118526913D01*
X143482874Y-118526688D01*
X143243886Y-118625436D01*
X143060878Y-118808124D01*
X142961713Y-119046940D01*
X142961488Y-119305526D01*
X118760722Y-119305526D01*
X118778838Y-119278415D01*
X118847346Y-118934000D01*
X118778838Y-118589585D01*
X118583742Y-118297604D01*
X118291761Y-118102508D01*
X117947346Y-118034000D01*
X116484654Y-118034000D01*
X116140239Y-118102508D01*
X115848258Y-118297604D01*
X115653162Y-118589585D01*
X115584654Y-118934000D01*
X105649989Y-118934000D01*
X105650091Y-118817069D01*
X105551343Y-118578081D01*
X105368655Y-118395073D01*
X105129839Y-118295908D01*
X104871253Y-118295683D01*
X104632265Y-118394431D01*
X104555767Y-118470795D01*
X103399465Y-118470795D01*
X103283742Y-118297604D01*
X102991761Y-118102508D01*
X102647346Y-118034000D01*
X101184654Y-118034000D01*
X100840239Y-118102508D01*
X100548258Y-118297604D01*
X100476791Y-118404561D01*
X100474363Y-117459804D01*
X100548258Y-117570396D01*
X100840239Y-117765492D01*
X101184654Y-117834000D01*
X102647346Y-117834000D01*
X102991761Y-117765492D01*
X103283742Y-117570396D01*
X103478838Y-117278415D01*
X103547346Y-116934000D01*
X115684654Y-116934000D01*
X115753162Y-117278415D01*
X115948258Y-117570396D01*
X116240239Y-117765492D01*
X116584654Y-117834000D01*
X118047346Y-117834000D01*
X118391761Y-117765492D01*
X118683742Y-117570396D01*
X118878838Y-117278415D01*
X118947346Y-116934000D01*
X118878838Y-116589585D01*
X118683742Y-116297604D01*
X118391761Y-116102508D01*
X118047346Y-116034000D01*
X116584654Y-116034000D01*
X116240239Y-116102508D01*
X115948258Y-116297604D01*
X115753162Y-116589585D01*
X115684654Y-116934000D01*
X103547346Y-116934000D01*
X103478838Y-116589585D01*
X103283742Y-116297604D01*
X102991761Y-116102508D01*
X102647346Y-116034000D01*
X101184654Y-116034000D01*
X100840239Y-116102508D01*
X100548258Y-116297604D01*
X100471670Y-116412226D01*
X100469201Y-115452080D01*
X100548258Y-115570396D01*
X100840239Y-115765492D01*
X101184654Y-115834000D01*
X102647346Y-115834000D01*
X102991761Y-115765492D01*
X103283742Y-115570396D01*
X103478838Y-115278415D01*
X103547346Y-114934000D01*
X115684654Y-114934000D01*
X115753162Y-115278415D01*
X115948258Y-115570396D01*
X116240239Y-115765492D01*
X116584654Y-115834000D01*
X118047346Y-115834000D01*
X118391761Y-115765492D01*
X118683742Y-115570396D01*
X118878838Y-115278415D01*
X118947346Y-114934000D01*
X118893794Y-114664773D01*
X146850142Y-114664773D01*
X146858771Y-114708166D01*
X147045894Y-115137366D01*
X147383021Y-115462286D01*
X147818827Y-115633460D01*
X148006200Y-115564642D01*
X148006200Y-114477400D01*
X148056200Y-114477400D01*
X148056200Y-115564642D01*
X148243573Y-115633460D01*
X148679379Y-115462286D01*
X149016506Y-115137366D01*
X149203629Y-114708166D01*
X149212258Y-114664773D01*
X149143419Y-114477400D01*
X148056200Y-114477400D01*
X148006200Y-114477400D01*
X146918981Y-114477400D01*
X146850142Y-114664773D01*
X118893794Y-114664773D01*
X118878838Y-114589585D01*
X118683742Y-114297604D01*
X118597573Y-114240027D01*
X146850142Y-114240027D01*
X146918981Y-114427400D01*
X148006200Y-114427400D01*
X148006200Y-113340158D01*
X148056200Y-113340158D01*
X148056200Y-114427400D01*
X149143419Y-114427400D01*
X149212258Y-114240027D01*
X149203629Y-114196634D01*
X149016506Y-113767434D01*
X148679379Y-113442514D01*
X148243573Y-113271340D01*
X148056200Y-113340158D01*
X148006200Y-113340158D01*
X147818827Y-113271340D01*
X147383021Y-113442514D01*
X147045894Y-113767434D01*
X146858771Y-114196634D01*
X146850142Y-114240027D01*
X118597573Y-114240027D01*
X118391761Y-114102508D01*
X118047346Y-114034000D01*
X116584654Y-114034000D01*
X116240239Y-114102508D01*
X115948258Y-114297604D01*
X115753162Y-114589585D01*
X115684654Y-114934000D01*
X103547346Y-114934000D01*
X103478838Y-114589585D01*
X103283742Y-114297604D01*
X102991761Y-114102508D01*
X102647346Y-114034000D01*
X101184654Y-114034000D01*
X100840239Y-114102508D01*
X100548258Y-114297604D01*
X100466548Y-114419891D01*
X100464040Y-113444355D01*
X100548258Y-113570396D01*
X100840239Y-113765492D01*
X101184654Y-113834000D01*
X102647346Y-113834000D01*
X102991761Y-113765492D01*
X103283742Y-113570396D01*
X103478838Y-113278415D01*
X103547346Y-112934000D01*
X115684654Y-112934000D01*
X115753162Y-113278415D01*
X115948258Y-113570396D01*
X116240239Y-113765492D01*
X116584654Y-113834000D01*
X118047346Y-113834000D01*
X118391761Y-113765492D01*
X118683742Y-113570396D01*
X118878838Y-113278415D01*
X118947346Y-112934000D01*
X118878838Y-112589585D01*
X118683742Y-112297604D01*
X118391761Y-112102508D01*
X118047346Y-112034000D01*
X116584654Y-112034000D01*
X116240239Y-112102508D01*
X115948258Y-112297604D01*
X115753162Y-112589585D01*
X115684654Y-112934000D01*
X103547346Y-112934000D01*
X103478838Y-112589585D01*
X103283742Y-112297604D01*
X102991761Y-112102508D01*
X102647346Y-112034000D01*
X101184654Y-112034000D01*
X100840239Y-112102508D01*
X100548258Y-112297604D01*
X100461426Y-112427557D01*
X100458879Y-111436631D01*
X100548258Y-111570396D01*
X100840239Y-111765492D01*
X101184654Y-111834000D01*
X102647346Y-111834000D01*
X102991761Y-111765492D01*
X103283742Y-111570396D01*
X103478838Y-111278415D01*
X103547346Y-110934000D01*
X115684654Y-110934000D01*
X115753162Y-111278415D01*
X115948258Y-111570396D01*
X116240239Y-111765492D01*
X116584654Y-111834000D01*
X118047346Y-111834000D01*
X118391761Y-111765492D01*
X118683742Y-111570396D01*
X118878838Y-111278415D01*
X118947346Y-110934000D01*
X118878838Y-110589585D01*
X118683742Y-110297604D01*
X118391761Y-110102508D01*
X118047346Y-110034000D01*
X116584654Y-110034000D01*
X116240239Y-110102508D01*
X115948258Y-110297604D01*
X115753162Y-110589585D01*
X115684654Y-110934000D01*
X103547346Y-110934000D01*
X103478838Y-110589585D01*
X103283742Y-110297604D01*
X102991761Y-110102508D01*
X102905381Y-110085326D01*
X107731688Y-110085326D01*
X107830436Y-110324314D01*
X108013124Y-110507322D01*
X108251940Y-110606487D01*
X108510526Y-110606712D01*
X108749514Y-110507964D01*
X108826012Y-110431600D01*
X112077734Y-110431600D01*
X112153324Y-110507322D01*
X112392140Y-110606487D01*
X112650726Y-110606712D01*
X112889714Y-110507964D01*
X113072722Y-110325276D01*
X113171887Y-110086460D01*
X113172112Y-109827874D01*
X113073364Y-109588886D01*
X112890676Y-109405878D01*
X112651860Y-109306713D01*
X112393274Y-109306488D01*
X112154286Y-109405236D01*
X112077788Y-109481600D01*
X108826066Y-109481600D01*
X108750476Y-109405878D01*
X108511660Y-109306713D01*
X108253074Y-109306488D01*
X108014086Y-109405236D01*
X107831078Y-109587924D01*
X107731913Y-109826740D01*
X107731688Y-110085326D01*
X102905381Y-110085326D01*
X102647346Y-110034000D01*
X101184654Y-110034000D01*
X100840239Y-110102508D01*
X100548258Y-110297604D01*
X100456304Y-110435222D01*
X100453718Y-109428907D01*
X100548258Y-109570396D01*
X100840239Y-109765492D01*
X101184654Y-109834000D01*
X102647346Y-109834000D01*
X102991761Y-109765492D01*
X103283742Y-109570396D01*
X103478838Y-109278415D01*
X103547346Y-108934000D01*
X115684654Y-108934000D01*
X115753162Y-109278415D01*
X115948258Y-109570396D01*
X116240239Y-109765492D01*
X116584654Y-109834000D01*
X118047346Y-109834000D01*
X118391761Y-109765492D01*
X118683742Y-109570396D01*
X118878838Y-109278415D01*
X118895166Y-109196326D01*
X123251088Y-109196326D01*
X123349836Y-109435314D01*
X123426200Y-109511812D01*
X123426200Y-113114934D01*
X123350478Y-113190524D01*
X123251313Y-113429340D01*
X123251088Y-113687926D01*
X123349836Y-113926914D01*
X123532524Y-114109922D01*
X123771340Y-114209087D01*
X124029926Y-114209312D01*
X124268914Y-114110564D01*
X124451922Y-113927876D01*
X124551087Y-113689060D01*
X124551312Y-113430474D01*
X124452564Y-113191486D01*
X124376200Y-113114988D01*
X124376200Y-111912400D01*
X146807691Y-111912400D01*
X146899036Y-112371620D01*
X147159163Y-112760928D01*
X147548471Y-113021055D01*
X148007691Y-113112400D01*
X148054709Y-113112400D01*
X148513929Y-113021055D01*
X148903237Y-112760928D01*
X149163364Y-112371620D01*
X149254709Y-111912400D01*
X149163364Y-111453180D01*
X148903237Y-111063872D01*
X148513929Y-110803745D01*
X148054709Y-110712400D01*
X148007691Y-110712400D01*
X147548471Y-110803745D01*
X147159163Y-111063872D01*
X146899036Y-111453180D01*
X146807691Y-111912400D01*
X124376200Y-111912400D01*
X124376200Y-109511866D01*
X124451922Y-109436276D01*
X124551087Y-109197460D01*
X124551312Y-108938874D01*
X124452564Y-108699886D01*
X124269876Y-108516878D01*
X124031060Y-108417713D01*
X123772474Y-108417488D01*
X123533486Y-108516236D01*
X123350478Y-108698924D01*
X123251313Y-108937740D01*
X123251088Y-109196326D01*
X118895166Y-109196326D01*
X118947346Y-108934000D01*
X118878838Y-108589585D01*
X118683742Y-108297604D01*
X118391761Y-108102508D01*
X118047346Y-108034000D01*
X116584654Y-108034000D01*
X116240239Y-108102508D01*
X115948258Y-108297604D01*
X115753162Y-108589585D01*
X115684654Y-108934000D01*
X103547346Y-108934000D01*
X103478838Y-108589585D01*
X103283742Y-108297604D01*
X102991761Y-108102508D01*
X102647346Y-108034000D01*
X101184654Y-108034000D01*
X100840239Y-108102508D01*
X100548258Y-108297604D01*
X100451183Y-108442887D01*
X100449426Y-107759625D01*
X100527163Y-107812741D01*
X100666000Y-107840856D01*
X103166000Y-107840856D01*
X103295702Y-107816451D01*
X103414825Y-107739797D01*
X103494741Y-107622837D01*
X103522856Y-107484000D01*
X103522856Y-106934000D01*
X115684654Y-106934000D01*
X115753162Y-107278415D01*
X115948258Y-107570396D01*
X116240239Y-107765492D01*
X116584654Y-107834000D01*
X118047346Y-107834000D01*
X118391761Y-107765492D01*
X118683742Y-107570396D01*
X118878838Y-107278415D01*
X118947346Y-106934000D01*
X118878838Y-106589585D01*
X118683742Y-106297604D01*
X118577714Y-106226758D01*
X127808597Y-106226758D01*
X128132485Y-106612946D01*
X129274572Y-107128714D01*
X130527099Y-107168164D01*
X131699380Y-106725290D01*
X131867515Y-106612946D01*
X132191403Y-106226758D01*
X130000000Y-104035355D01*
X127808597Y-106226758D01*
X118577714Y-106226758D01*
X118391761Y-106102508D01*
X118047346Y-106034000D01*
X116584654Y-106034000D01*
X116240239Y-106102508D01*
X115948258Y-106297604D01*
X115753162Y-106589585D01*
X115684654Y-106934000D01*
X103522856Y-106934000D01*
X103522856Y-106384000D01*
X103498451Y-106254298D01*
X103421797Y-106135175D01*
X103304837Y-106055259D01*
X103166000Y-106027144D01*
X100666000Y-106027144D01*
X100536298Y-106051549D01*
X100445186Y-106110178D01*
X100441117Y-104527099D01*
X126831836Y-104527099D01*
X127274710Y-105699380D01*
X127387054Y-105867515D01*
X127773242Y-106191403D01*
X129964645Y-104000000D01*
X130035355Y-104000000D01*
X132226758Y-106191403D01*
X132612946Y-105867515D01*
X133128714Y-104725428D01*
X133168164Y-103472901D01*
X132816364Y-102541691D01*
X136518800Y-102541691D01*
X136518800Y-102588709D01*
X136610145Y-103047929D01*
X136870272Y-103437237D01*
X137243800Y-103686820D01*
X137243800Y-110502934D01*
X137168078Y-110578524D01*
X137068913Y-110817340D01*
X137068688Y-111075926D01*
X137167436Y-111314914D01*
X137350124Y-111497922D01*
X137588940Y-111597087D01*
X137847526Y-111597312D01*
X138086514Y-111498564D01*
X138269522Y-111315876D01*
X138368687Y-111077060D01*
X138368912Y-110818474D01*
X138270164Y-110579486D01*
X138193800Y-110502988D01*
X138193800Y-109372400D01*
X146807691Y-109372400D01*
X146899036Y-109831620D01*
X147159163Y-110220928D01*
X147548471Y-110481055D01*
X148007691Y-110572400D01*
X148054709Y-110572400D01*
X148513929Y-110481055D01*
X148903237Y-110220928D01*
X149163364Y-109831620D01*
X149254709Y-109372400D01*
X149163364Y-108913180D01*
X148903237Y-108523872D01*
X148513929Y-108263745D01*
X148054709Y-108172400D01*
X148007691Y-108172400D01*
X147548471Y-108263745D01*
X147159163Y-108523872D01*
X146899036Y-108913180D01*
X146807691Y-109372400D01*
X138193800Y-109372400D01*
X138193800Y-105982400D01*
X146824344Y-105982400D01*
X146824344Y-107682400D01*
X146848749Y-107812102D01*
X146925403Y-107931225D01*
X147042363Y-108011141D01*
X147181200Y-108039256D01*
X148881200Y-108039256D01*
X149010902Y-108014851D01*
X149130025Y-107938197D01*
X149209941Y-107821237D01*
X149238056Y-107682400D01*
X149238056Y-105982400D01*
X149213651Y-105852698D01*
X149136997Y-105733575D01*
X149020037Y-105653659D01*
X148881200Y-105625544D01*
X147181200Y-105625544D01*
X147051498Y-105649949D01*
X146932375Y-105726603D01*
X146852459Y-105843563D01*
X146824344Y-105982400D01*
X138193800Y-105982400D01*
X138193800Y-103686820D01*
X138567328Y-103437237D01*
X138827455Y-103047929D01*
X138918800Y-102588709D01*
X138918800Y-102541691D01*
X139058800Y-102541691D01*
X139058800Y-102588709D01*
X139150145Y-103047929D01*
X139410272Y-103437237D01*
X139799580Y-103697364D01*
X140258800Y-103788709D01*
X140718020Y-103697364D01*
X141107328Y-103437237D01*
X141367455Y-103047929D01*
X141458800Y-102588709D01*
X141458800Y-102541691D01*
X141367455Y-102082471D01*
X141122053Y-101715200D01*
X141591944Y-101715200D01*
X141591944Y-103415200D01*
X141616349Y-103544902D01*
X141693003Y-103664025D01*
X141809963Y-103743941D01*
X141948800Y-103772056D01*
X143648800Y-103772056D01*
X143778502Y-103747651D01*
X143897625Y-103670997D01*
X143977541Y-103554037D01*
X144005656Y-103415200D01*
X144005656Y-101715200D01*
X143981251Y-101585498D01*
X143904597Y-101466375D01*
X143787637Y-101386459D01*
X143648800Y-101358344D01*
X141948800Y-101358344D01*
X141819098Y-101382749D01*
X141699975Y-101459403D01*
X141620059Y-101576363D01*
X141591944Y-101715200D01*
X141122053Y-101715200D01*
X141107328Y-101693163D01*
X140718020Y-101433036D01*
X140258800Y-101341691D01*
X139799580Y-101433036D01*
X139410272Y-101693163D01*
X139150145Y-102082471D01*
X139058800Y-102541691D01*
X138918800Y-102541691D01*
X138827455Y-102082471D01*
X138567328Y-101693163D01*
X138178020Y-101433036D01*
X137718800Y-101341691D01*
X137259580Y-101433036D01*
X136870272Y-101693163D01*
X136610145Y-102082471D01*
X136518800Y-102541691D01*
X132816364Y-102541691D01*
X132725290Y-102300620D01*
X132612946Y-102132485D01*
X132226758Y-101808597D01*
X130035355Y-104000000D01*
X129964645Y-104000000D01*
X127773242Y-101808597D01*
X127387054Y-102132485D01*
X126871286Y-103274572D01*
X126831836Y-104527099D01*
X100441117Y-104527099D01*
X100441031Y-104494000D01*
X118872000Y-104494000D01*
X118908346Y-104487161D01*
X118941727Y-104465681D01*
X118964121Y-104432906D01*
X118972000Y-104394000D01*
X118972000Y-101773242D01*
X127808597Y-101773242D01*
X130000000Y-103964645D01*
X132191403Y-101773242D01*
X131867515Y-101387054D01*
X130725428Y-100871286D01*
X129472901Y-100831836D01*
X128300620Y-101274710D01*
X128132485Y-101387054D01*
X127808597Y-101773242D01*
X118972000Y-101773242D01*
X118972000Y-100430000D01*
X149506000Y-100430000D01*
X149506000Y-149506000D01*
X149506000Y-149506000D01*
G37*
X149506000Y-149506000D02*
X120623000Y-149506000D01*
X120623000Y-148226758D01*
X127808597Y-148226758D01*
X128132485Y-148612946D01*
X129274572Y-149128714D01*
X130527099Y-149168164D01*
X131699380Y-148725290D01*
X131867515Y-148612946D01*
X132191403Y-148226758D01*
X130000000Y-146035355D01*
X127808597Y-148226758D01*
X120623000Y-148226758D01*
X120623000Y-146527099D01*
X126831836Y-146527099D01*
X127274710Y-147699380D01*
X127387054Y-147867515D01*
X127773242Y-148191403D01*
X129964645Y-146000000D01*
X130035355Y-146000000D01*
X132226758Y-148191403D01*
X132612946Y-147867515D01*
X132769591Y-147520648D01*
X146098707Y-147520648D01*
X146173159Y-147693822D01*
X146574554Y-147868127D01*
X147012098Y-147875555D01*
X147419178Y-147714978D01*
X147450841Y-147693822D01*
X147525293Y-147520648D01*
X146812000Y-146807355D01*
X146098707Y-147520648D01*
X132769591Y-147520648D01*
X133017317Y-146972098D01*
X145708445Y-146972098D01*
X145869022Y-147379178D01*
X145890178Y-147410841D01*
X146063352Y-147485293D01*
X146776645Y-146772000D01*
X146847355Y-146772000D01*
X147560648Y-147485293D01*
X147733822Y-147410841D01*
X147908127Y-147009446D01*
X147915555Y-146571902D01*
X147754978Y-146164822D01*
X147733822Y-146133159D01*
X147560648Y-146058707D01*
X146847355Y-146772000D01*
X146776645Y-146772000D01*
X146063352Y-146058707D01*
X145890178Y-146133159D01*
X145715873Y-146534554D01*
X145708445Y-146972098D01*
X133017317Y-146972098D01*
X133128714Y-146725428D01*
X133150826Y-146023352D01*
X146098707Y-146023352D01*
X146812000Y-146736645D01*
X147525293Y-146023352D01*
X147450841Y-145850178D01*
X147049446Y-145675873D01*
X146611902Y-145668445D01*
X146204822Y-145829022D01*
X146173159Y-145850178D01*
X146098707Y-146023352D01*
X133150826Y-146023352D01*
X133168164Y-145472901D01*
X132725290Y-144300620D01*
X132612946Y-144132485D01*
X132226758Y-143808597D01*
X130035355Y-146000000D01*
X129964645Y-146000000D01*
X127773242Y-143808597D01*
X127387054Y-144132485D01*
X126871286Y-145274572D01*
X126831836Y-146527099D01*
X120623000Y-146527099D01*
X120623000Y-143773242D01*
X127808597Y-143773242D01*
X130000000Y-145964645D01*
X132191403Y-143773242D01*
X131980692Y-143522000D01*
X145705144Y-143522000D01*
X145705144Y-145022000D01*
X145729549Y-145151702D01*
X145806203Y-145270825D01*
X145923163Y-145350741D01*
X146062000Y-145378856D01*
X147562000Y-145378856D01*
X147691702Y-145354451D01*
X147810825Y-145277797D01*
X147890741Y-145160837D01*
X147918856Y-145022000D01*
X147918856Y-143522000D01*
X147894451Y-143392298D01*
X147817797Y-143273175D01*
X147700837Y-143193259D01*
X147562000Y-143165144D01*
X146062000Y-143165144D01*
X145932298Y-143189549D01*
X145813175Y-143266203D01*
X145733259Y-143383163D01*
X145705144Y-143522000D01*
X131980692Y-143522000D01*
X131867515Y-143387054D01*
X130725428Y-142871286D01*
X129472901Y-142831836D01*
X128300620Y-143274710D01*
X128132485Y-143387054D01*
X127808597Y-143773242D01*
X120623000Y-143773242D01*
X120623000Y-143510000D01*
X120616161Y-143473654D01*
X120594681Y-143440273D01*
X120561906Y-143417879D01*
X120523000Y-143410000D01*
X100541073Y-143410000D01*
X100503529Y-128805126D01*
X100949888Y-128805126D01*
X101000000Y-128926406D01*
X101000000Y-129794000D01*
X101045672Y-130023610D01*
X101175736Y-130218264D01*
X101508000Y-130550528D01*
X101508000Y-130939141D01*
X101368896Y-131147323D01*
X101308000Y-131453470D01*
X101308000Y-132198530D01*
X101368896Y-132504677D01*
X101542315Y-132764215D01*
X101801853Y-132937634D01*
X102108000Y-132998530D01*
X102414147Y-132937634D01*
X102673685Y-132764215D01*
X102750904Y-132648650D01*
X102829992Y-132759364D01*
X103094950Y-132924672D01*
X103228221Y-132961854D01*
X103353000Y-132888061D01*
X103353000Y-131851000D01*
X103333000Y-131851000D01*
X103333000Y-131801000D01*
X103353000Y-131801000D01*
X103353000Y-130763939D01*
X103403000Y-130763939D01*
X103403000Y-131801000D01*
X103423000Y-131801000D01*
X103423000Y-131851000D01*
X103403000Y-131851000D01*
X103403000Y-132888061D01*
X103527779Y-132961854D01*
X103661050Y-132924672D01*
X103926008Y-132759364D01*
X104005096Y-132648650D01*
X104082315Y-132764215D01*
X104341853Y-132937634D01*
X104648000Y-132998530D01*
X104954147Y-132937634D01*
X105213685Y-132764215D01*
X105283000Y-132660479D01*
X105352315Y-132764215D01*
X105443000Y-132824809D01*
X105443000Y-133007334D01*
X105367278Y-133082924D01*
X105268113Y-133321740D01*
X105267888Y-133580326D01*
X105366636Y-133819314D01*
X105549324Y-134002322D01*
X105788140Y-134101487D01*
X106046726Y-134101712D01*
X106182814Y-134045481D01*
X106129278Y-134098924D01*
X106030113Y-134337740D01*
X106029888Y-134596326D01*
X106053305Y-134653000D01*
X104584266Y-134653000D01*
X104508676Y-134577278D01*
X104269860Y-134478113D01*
X104011274Y-134477888D01*
X103772286Y-134576636D01*
X103589278Y-134759324D01*
X103490113Y-134998140D01*
X103489888Y-135256726D01*
X103588636Y-135495714D01*
X103771324Y-135678722D01*
X104010140Y-135777887D01*
X104268726Y-135778112D01*
X104507714Y-135679364D01*
X104584212Y-135603000D01*
X109321600Y-135603000D01*
X109503375Y-135566843D01*
X109657476Y-135463876D01*
X110063873Y-135057478D01*
X110063876Y-135057476D01*
X110166843Y-134903375D01*
X110203000Y-134721600D01*
X110203000Y-132824809D01*
X110293685Y-132764215D01*
X110363000Y-132660479D01*
X110432315Y-132764215D01*
X110691853Y-132937634D01*
X110998000Y-132998530D01*
X111304147Y-132937634D01*
X111563685Y-132764215D01*
X111737104Y-132504677D01*
X111798000Y-132198530D01*
X111798000Y-131453470D01*
X111737104Y-131147323D01*
X111563685Y-130887785D01*
X111304147Y-130714366D01*
X110998000Y-130653470D01*
X110691853Y-130714366D01*
X110432315Y-130887785D01*
X110363000Y-130991521D01*
X110293685Y-130887785D01*
X110034147Y-130714366D01*
X109728000Y-130653470D01*
X109421853Y-130714366D01*
X109162315Y-130887785D01*
X109093000Y-130991521D01*
X109023685Y-130887785D01*
X108764147Y-130714366D01*
X108458000Y-130653470D01*
X108151853Y-130714366D01*
X107892315Y-130887785D01*
X107823000Y-130991521D01*
X107753685Y-130887785D01*
X107494147Y-130714366D01*
X107188000Y-130653470D01*
X106881853Y-130714366D01*
X106622315Y-130887785D01*
X106553000Y-130991521D01*
X106483685Y-130887785D01*
X106224147Y-130714366D01*
X105918000Y-130653470D01*
X105611853Y-130714366D01*
X105352315Y-130887785D01*
X105283000Y-130991521D01*
X105213685Y-130887785D01*
X105210257Y-130885495D01*
X107723848Y-128371903D01*
X107820140Y-128411887D01*
X108078726Y-128412112D01*
X108317714Y-128313364D01*
X108500722Y-128130676D01*
X108599887Y-127891860D01*
X108600112Y-127633274D01*
X108501364Y-127394286D01*
X108318676Y-127211278D01*
X108079860Y-127112113D01*
X107821274Y-127111888D01*
X107582286Y-127210636D01*
X107447994Y-127344693D01*
X107326124Y-127426124D01*
X107326122Y-127426127D01*
X104312124Y-130440124D01*
X104209157Y-130594225D01*
X104173000Y-130776000D01*
X104173000Y-130827191D01*
X104082315Y-130887785D01*
X104005096Y-131003350D01*
X103926008Y-130892636D01*
X103661050Y-130727328D01*
X103527779Y-130690146D01*
X103403000Y-130763939D01*
X103353000Y-130763939D01*
X103228221Y-130690146D01*
X103094950Y-130727328D01*
X102829992Y-130892636D01*
X102750904Y-131003350D01*
X102708000Y-130939141D01*
X102708000Y-130302000D01*
X102662328Y-130072390D01*
X102662328Y-130072389D01*
X102532264Y-129877736D01*
X102200000Y-129545472D01*
X102200000Y-128926401D01*
X102249887Y-128806260D01*
X102250112Y-128547674D01*
X102151364Y-128308686D01*
X101968676Y-128125678D01*
X101729860Y-128026513D01*
X101471274Y-128026288D01*
X101232286Y-128125036D01*
X101049278Y-128307724D01*
X100950113Y-128546540D01*
X100949888Y-128805126D01*
X100503529Y-128805126D01*
X100496170Y-125942373D01*
X105498940Y-125942373D01*
X105670114Y-126378179D01*
X105995034Y-126715306D01*
X106424234Y-126902429D01*
X106467627Y-126911058D01*
X106655000Y-126842219D01*
X106655000Y-125755000D01*
X106705000Y-125755000D01*
X106705000Y-126842219D01*
X106892373Y-126911058D01*
X106935766Y-126902429D01*
X107364966Y-126715306D01*
X107689886Y-126378179D01*
X107861060Y-125942373D01*
X107792242Y-125755000D01*
X106705000Y-125755000D01*
X106655000Y-125755000D01*
X105567758Y-125755000D01*
X105498940Y-125942373D01*
X100496170Y-125942373D01*
X100495564Y-125706491D01*
X108020000Y-125706491D01*
X108020000Y-125753509D01*
X108111345Y-126212729D01*
X108371472Y-126602037D01*
X108760780Y-126862164D01*
X109220000Y-126953509D01*
X109679220Y-126862164D01*
X110068528Y-126602037D01*
X110328655Y-126212729D01*
X110420000Y-125753509D01*
X110420000Y-125706491D01*
X110560000Y-125706491D01*
X110560000Y-125753509D01*
X110651345Y-126212729D01*
X110911472Y-126602037D01*
X111300780Y-126862164D01*
X111760000Y-126953509D01*
X112219220Y-126862164D01*
X112608528Y-126602037D01*
X112868655Y-126212729D01*
X112960000Y-125753509D01*
X112960000Y-125706491D01*
X112868655Y-125247271D01*
X112608528Y-124857963D01*
X112219220Y-124597836D01*
X111760000Y-124506491D01*
X111300780Y-124597836D01*
X110911472Y-124857963D01*
X110651345Y-125247271D01*
X110560000Y-125706491D01*
X110420000Y-125706491D01*
X110328655Y-125247271D01*
X110068528Y-124857963D01*
X109679220Y-124597836D01*
X109220000Y-124506491D01*
X108760780Y-124597836D01*
X108371472Y-124857963D01*
X108111345Y-125247271D01*
X108020000Y-125706491D01*
X100495564Y-125706491D01*
X100495078Y-125517627D01*
X105498940Y-125517627D01*
X105567758Y-125705000D01*
X106655000Y-125705000D01*
X106655000Y-124617781D01*
X106705000Y-124617781D01*
X106705000Y-125705000D01*
X107792242Y-125705000D01*
X107861060Y-125517627D01*
X107689886Y-125081821D01*
X107364966Y-124744694D01*
X106935766Y-124557571D01*
X106892373Y-124548942D01*
X106705000Y-124617781D01*
X106655000Y-124617781D01*
X106467627Y-124548942D01*
X106424234Y-124557571D01*
X105995034Y-124744694D01*
X105670114Y-125081821D01*
X105498940Y-125517627D01*
X100495078Y-125517627D01*
X100484685Y-121475253D01*
X100548258Y-121570396D01*
X100840239Y-121765492D01*
X101184654Y-121834000D01*
X102647346Y-121834000D01*
X102991761Y-121765492D01*
X103283742Y-121570396D01*
X103308061Y-121534000D01*
X110605472Y-121534000D01*
X113594616Y-124523144D01*
X113450000Y-124523144D01*
X113320298Y-124547549D01*
X113201175Y-124624203D01*
X113121259Y-124741163D01*
X113093144Y-124880000D01*
X113093144Y-126580000D01*
X113117549Y-126709702D01*
X113194203Y-126828825D01*
X113311163Y-126908741D01*
X113450000Y-126936856D01*
X113700000Y-126936856D01*
X113700000Y-127914400D01*
X113745672Y-128144010D01*
X113875736Y-128338664D01*
X115298136Y-129761064D01*
X115492789Y-129891128D01*
X115722400Y-129936800D01*
X116640799Y-129936800D01*
X116760940Y-129986687D01*
X117019526Y-129986912D01*
X117258514Y-129888164D01*
X117441522Y-129705476D01*
X117540687Y-129466660D01*
X117540912Y-129208074D01*
X117442164Y-128969086D01*
X117259476Y-128786078D01*
X117020660Y-128686913D01*
X116762074Y-128686688D01*
X116640794Y-128736800D01*
X115970928Y-128736800D01*
X114900000Y-127665872D01*
X114900000Y-126936856D01*
X115150000Y-126936856D01*
X115279702Y-126912451D01*
X115398825Y-126835797D01*
X115478741Y-126718837D01*
X115506856Y-126580000D01*
X115506856Y-124880000D01*
X115482451Y-124750298D01*
X115405797Y-124631175D01*
X115288837Y-124551259D01*
X115150000Y-124523144D01*
X114900000Y-124523144D01*
X114900000Y-124380000D01*
X114854328Y-124150390D01*
X114724264Y-123955736D01*
X111867957Y-121099429D01*
X115731334Y-121099429D01*
X115774941Y-121255318D01*
X115961926Y-121552718D01*
X116248488Y-121755924D01*
X116591000Y-121834000D01*
X117291000Y-121834000D01*
X117291000Y-120959000D01*
X117341000Y-120959000D01*
X117341000Y-121834000D01*
X118041000Y-121834000D01*
X118383512Y-121755924D01*
X118670074Y-121552718D01*
X118837311Y-121286726D01*
X135189088Y-121286726D01*
X135239200Y-121408006D01*
X135239200Y-124209999D01*
X135189313Y-124330140D01*
X135189088Y-124588726D01*
X135287836Y-124827714D01*
X135470524Y-125010722D01*
X135709340Y-125109887D01*
X135967926Y-125110112D01*
X136206914Y-125011364D01*
X136389922Y-124828676D01*
X136489087Y-124589860D01*
X136489312Y-124331274D01*
X136439200Y-124209994D01*
X136439200Y-121408001D01*
X136489087Y-121287860D01*
X136489312Y-121029274D01*
X136390564Y-120790286D01*
X136207876Y-120607278D01*
X135969060Y-120508113D01*
X135710474Y-120507888D01*
X135471486Y-120606636D01*
X135288478Y-120789324D01*
X135189313Y-121028140D01*
X135189088Y-121286726D01*
X118837311Y-121286726D01*
X118857059Y-121255318D01*
X118900666Y-121099429D01*
X118828115Y-120959000D01*
X117341000Y-120959000D01*
X117291000Y-120959000D01*
X115803885Y-120959000D01*
X115731334Y-121099429D01*
X111867957Y-121099429D01*
X111537099Y-120768571D01*
X115731334Y-120768571D01*
X115803885Y-120909000D01*
X117291000Y-120909000D01*
X117291000Y-120034000D01*
X117341000Y-120034000D01*
X117341000Y-120909000D01*
X118828115Y-120909000D01*
X118900666Y-120768571D01*
X118857059Y-120612682D01*
X118670074Y-120315282D01*
X118607241Y-120270726D01*
X127619888Y-120270726D01*
X127718636Y-120509714D01*
X127901324Y-120692722D01*
X128140140Y-120791887D01*
X128398726Y-120792112D01*
X128637714Y-120693364D01*
X128714212Y-120617000D01*
X133921734Y-120617000D01*
X133997324Y-120692722D01*
X134236140Y-120791887D01*
X134494726Y-120792112D01*
X134733714Y-120693364D01*
X134916722Y-120510676D01*
X135015887Y-120271860D01*
X135016112Y-120013274D01*
X134917364Y-119774286D01*
X134734676Y-119591278D01*
X134495860Y-119492113D01*
X134237274Y-119491888D01*
X133998286Y-119590636D01*
X133921788Y-119667000D01*
X128714266Y-119667000D01*
X128638676Y-119591278D01*
X128399860Y-119492113D01*
X128141274Y-119491888D01*
X127902286Y-119590636D01*
X127719278Y-119773324D01*
X127620113Y-120012140D01*
X127619888Y-120270726D01*
X118607241Y-120270726D01*
X118383512Y-120112076D01*
X118041000Y-120034000D01*
X117341000Y-120034000D01*
X117291000Y-120034000D01*
X116591000Y-120034000D01*
X116248488Y-120112076D01*
X115961926Y-120315282D01*
X115774941Y-120612682D01*
X115731334Y-120768571D01*
X111537099Y-120768571D01*
X111278264Y-120509736D01*
X111083610Y-120379672D01*
X110854000Y-120334000D01*
X103308061Y-120334000D01*
X103283742Y-120297604D01*
X102991761Y-120102508D01*
X102647346Y-120034000D01*
X101184654Y-120034000D01*
X100840239Y-120102508D01*
X100548258Y-120297604D01*
X100481913Y-120396896D01*
X100479524Y-119467529D01*
X100548258Y-119570396D01*
X100840239Y-119765492D01*
X101184654Y-119834000D01*
X102647346Y-119834000D01*
X102991761Y-119765492D01*
X103283742Y-119570396D01*
X103383702Y-119420795D01*
X104555713Y-119420795D01*
X104631303Y-119496517D01*
X104870119Y-119595682D01*
X105128705Y-119595907D01*
X105367693Y-119497159D01*
X105550701Y-119314471D01*
X105649866Y-119075655D01*
X105649989Y-118934000D01*
X115584654Y-118934000D01*
X115653162Y-119278415D01*
X115848258Y-119570396D01*
X116140239Y-119765492D01*
X116484654Y-119834000D01*
X117947346Y-119834000D01*
X118291761Y-119765492D01*
X118583742Y-119570396D01*
X118760722Y-119305526D01*
X142961488Y-119305526D01*
X143060236Y-119544514D01*
X143242924Y-119727522D01*
X143364118Y-119777846D01*
X144942000Y-121355728D01*
X144942000Y-127257999D01*
X144892113Y-127378140D01*
X144891888Y-127636726D01*
X144990636Y-127875714D01*
X145173324Y-128058722D01*
X145412140Y-128157887D01*
X145670726Y-128158112D01*
X145909714Y-128059364D01*
X146092722Y-127876676D01*
X146191887Y-127637860D01*
X146192036Y-127466373D01*
X146900942Y-127466373D01*
X146909571Y-127509766D01*
X147096694Y-127938966D01*
X147433821Y-128263886D01*
X147869627Y-128435060D01*
X148057000Y-128366242D01*
X148057000Y-127279000D01*
X148107000Y-127279000D01*
X148107000Y-128366242D01*
X148294373Y-128435060D01*
X148730179Y-128263886D01*
X149067306Y-127938966D01*
X149254429Y-127509766D01*
X149263058Y-127466373D01*
X149194219Y-127279000D01*
X148107000Y-127279000D01*
X148057000Y-127279000D01*
X146969781Y-127279000D01*
X146900942Y-127466373D01*
X146192036Y-127466373D01*
X146192112Y-127379274D01*
X146142000Y-127257994D01*
X146142000Y-127041627D01*
X146900942Y-127041627D01*
X146969781Y-127229000D01*
X148057000Y-127229000D01*
X148057000Y-126141758D01*
X148107000Y-126141758D01*
X148107000Y-127229000D01*
X149194219Y-127229000D01*
X149263058Y-127041627D01*
X149254429Y-126998234D01*
X149067306Y-126569034D01*
X148730179Y-126244114D01*
X148294373Y-126072940D01*
X148107000Y-126141758D01*
X148057000Y-126141758D01*
X147869627Y-126072940D01*
X147433821Y-126244114D01*
X147096694Y-126569034D01*
X146909571Y-126998234D01*
X146900942Y-127041627D01*
X146142000Y-127041627D01*
X146142000Y-124714000D01*
X146858491Y-124714000D01*
X146949836Y-125173220D01*
X147209963Y-125562528D01*
X147599271Y-125822655D01*
X148058491Y-125914000D01*
X148105509Y-125914000D01*
X148564729Y-125822655D01*
X148954037Y-125562528D01*
X149214164Y-125173220D01*
X149305509Y-124714000D01*
X149214164Y-124254780D01*
X148954037Y-123865472D01*
X148564729Y-123605345D01*
X148105509Y-123514000D01*
X148058491Y-123514000D01*
X147599271Y-123605345D01*
X147209963Y-123865472D01*
X146949836Y-124254780D01*
X146858491Y-124714000D01*
X146142000Y-124714000D01*
X146142000Y-122174000D01*
X146858491Y-122174000D01*
X146949836Y-122633220D01*
X147209963Y-123022528D01*
X147599271Y-123282655D01*
X148058491Y-123374000D01*
X148105509Y-123374000D01*
X148564729Y-123282655D01*
X148954037Y-123022528D01*
X149214164Y-122633220D01*
X149305509Y-122174000D01*
X149214164Y-121714780D01*
X148954037Y-121325472D01*
X148564729Y-121065345D01*
X148105509Y-120974000D01*
X148058491Y-120974000D01*
X147599271Y-121065345D01*
X147209963Y-121325472D01*
X146949836Y-121714780D01*
X146858491Y-122174000D01*
X146142000Y-122174000D01*
X146142000Y-121107200D01*
X146096328Y-120877590D01*
X145966264Y-120682936D01*
X144212641Y-118929313D01*
X144162964Y-118809086D01*
X144137922Y-118784000D01*
X146875144Y-118784000D01*
X146875144Y-120484000D01*
X146899549Y-120613702D01*
X146976203Y-120732825D01*
X147093163Y-120812741D01*
X147232000Y-120840856D01*
X148932000Y-120840856D01*
X149061702Y-120816451D01*
X149180825Y-120739797D01*
X149260741Y-120622837D01*
X149288856Y-120484000D01*
X149288856Y-118784000D01*
X149264451Y-118654298D01*
X149187797Y-118535175D01*
X149070837Y-118455259D01*
X148932000Y-118427144D01*
X147232000Y-118427144D01*
X147102298Y-118451549D01*
X146983175Y-118528203D01*
X146903259Y-118645163D01*
X146875144Y-118784000D01*
X144137922Y-118784000D01*
X143980276Y-118626078D01*
X143741460Y-118526913D01*
X143482874Y-118526688D01*
X143243886Y-118625436D01*
X143060878Y-118808124D01*
X142961713Y-119046940D01*
X142961488Y-119305526D01*
X118760722Y-119305526D01*
X118778838Y-119278415D01*
X118847346Y-118934000D01*
X118778838Y-118589585D01*
X118583742Y-118297604D01*
X118291761Y-118102508D01*
X117947346Y-118034000D01*
X116484654Y-118034000D01*
X116140239Y-118102508D01*
X115848258Y-118297604D01*
X115653162Y-118589585D01*
X115584654Y-118934000D01*
X105649989Y-118934000D01*
X105650091Y-118817069D01*
X105551343Y-118578081D01*
X105368655Y-118395073D01*
X105129839Y-118295908D01*
X104871253Y-118295683D01*
X104632265Y-118394431D01*
X104555767Y-118470795D01*
X103399465Y-118470795D01*
X103283742Y-118297604D01*
X102991761Y-118102508D01*
X102647346Y-118034000D01*
X101184654Y-118034000D01*
X100840239Y-118102508D01*
X100548258Y-118297604D01*
X100476791Y-118404561D01*
X100474363Y-117459804D01*
X100548258Y-117570396D01*
X100840239Y-117765492D01*
X101184654Y-117834000D01*
X102647346Y-117834000D01*
X102991761Y-117765492D01*
X103283742Y-117570396D01*
X103478838Y-117278415D01*
X103547346Y-116934000D01*
X115684654Y-116934000D01*
X115753162Y-117278415D01*
X115948258Y-117570396D01*
X116240239Y-117765492D01*
X116584654Y-117834000D01*
X118047346Y-117834000D01*
X118391761Y-117765492D01*
X118683742Y-117570396D01*
X118878838Y-117278415D01*
X118947346Y-116934000D01*
X118878838Y-116589585D01*
X118683742Y-116297604D01*
X118391761Y-116102508D01*
X118047346Y-116034000D01*
X116584654Y-116034000D01*
X116240239Y-116102508D01*
X115948258Y-116297604D01*
X115753162Y-116589585D01*
X115684654Y-116934000D01*
X103547346Y-116934000D01*
X103478838Y-116589585D01*
X103283742Y-116297604D01*
X102991761Y-116102508D01*
X102647346Y-116034000D01*
X101184654Y-116034000D01*
X100840239Y-116102508D01*
X100548258Y-116297604D01*
X100471670Y-116412226D01*
X100469201Y-115452080D01*
X100548258Y-115570396D01*
X100840239Y-115765492D01*
X101184654Y-115834000D01*
X102647346Y-115834000D01*
X102991761Y-115765492D01*
X103283742Y-115570396D01*
X103478838Y-115278415D01*
X103547346Y-114934000D01*
X115684654Y-114934000D01*
X115753162Y-115278415D01*
X115948258Y-115570396D01*
X116240239Y-115765492D01*
X116584654Y-115834000D01*
X118047346Y-115834000D01*
X118391761Y-115765492D01*
X118683742Y-115570396D01*
X118878838Y-115278415D01*
X118947346Y-114934000D01*
X118893794Y-114664773D01*
X146850142Y-114664773D01*
X146858771Y-114708166D01*
X147045894Y-115137366D01*
X147383021Y-115462286D01*
X147818827Y-115633460D01*
X148006200Y-115564642D01*
X148006200Y-114477400D01*
X148056200Y-114477400D01*
X148056200Y-115564642D01*
X148243573Y-115633460D01*
X148679379Y-115462286D01*
X149016506Y-115137366D01*
X149203629Y-114708166D01*
X149212258Y-114664773D01*
X149143419Y-114477400D01*
X148056200Y-114477400D01*
X148006200Y-114477400D01*
X146918981Y-114477400D01*
X146850142Y-114664773D01*
X118893794Y-114664773D01*
X118878838Y-114589585D01*
X118683742Y-114297604D01*
X118597573Y-114240027D01*
X146850142Y-114240027D01*
X146918981Y-114427400D01*
X148006200Y-114427400D01*
X148006200Y-113340158D01*
X148056200Y-113340158D01*
X148056200Y-114427400D01*
X149143419Y-114427400D01*
X149212258Y-114240027D01*
X149203629Y-114196634D01*
X149016506Y-113767434D01*
X148679379Y-113442514D01*
X148243573Y-113271340D01*
X148056200Y-113340158D01*
X148006200Y-113340158D01*
X147818827Y-113271340D01*
X147383021Y-113442514D01*
X147045894Y-113767434D01*
X146858771Y-114196634D01*
X146850142Y-114240027D01*
X118597573Y-114240027D01*
X118391761Y-114102508D01*
X118047346Y-114034000D01*
X116584654Y-114034000D01*
X116240239Y-114102508D01*
X115948258Y-114297604D01*
X115753162Y-114589585D01*
X115684654Y-114934000D01*
X103547346Y-114934000D01*
X103478838Y-114589585D01*
X103283742Y-114297604D01*
X102991761Y-114102508D01*
X102647346Y-114034000D01*
X101184654Y-114034000D01*
X100840239Y-114102508D01*
X100548258Y-114297604D01*
X100466548Y-114419891D01*
X100464040Y-113444355D01*
X100548258Y-113570396D01*
X100840239Y-113765492D01*
X101184654Y-113834000D01*
X102647346Y-113834000D01*
X102991761Y-113765492D01*
X103283742Y-113570396D01*
X103478838Y-113278415D01*
X103547346Y-112934000D01*
X115684654Y-112934000D01*
X115753162Y-113278415D01*
X115948258Y-113570396D01*
X116240239Y-113765492D01*
X116584654Y-113834000D01*
X118047346Y-113834000D01*
X118391761Y-113765492D01*
X118683742Y-113570396D01*
X118878838Y-113278415D01*
X118947346Y-112934000D01*
X118878838Y-112589585D01*
X118683742Y-112297604D01*
X118391761Y-112102508D01*
X118047346Y-112034000D01*
X116584654Y-112034000D01*
X116240239Y-112102508D01*
X115948258Y-112297604D01*
X115753162Y-112589585D01*
X115684654Y-112934000D01*
X103547346Y-112934000D01*
X103478838Y-112589585D01*
X103283742Y-112297604D01*
X102991761Y-112102508D01*
X102647346Y-112034000D01*
X101184654Y-112034000D01*
X100840239Y-112102508D01*
X100548258Y-112297604D01*
X100461426Y-112427557D01*
X100458879Y-111436631D01*
X100548258Y-111570396D01*
X100840239Y-111765492D01*
X101184654Y-111834000D01*
X102647346Y-111834000D01*
X102991761Y-111765492D01*
X103283742Y-111570396D01*
X103478838Y-111278415D01*
X103547346Y-110934000D01*
X115684654Y-110934000D01*
X115753162Y-111278415D01*
X115948258Y-111570396D01*
X116240239Y-111765492D01*
X116584654Y-111834000D01*
X118047346Y-111834000D01*
X118391761Y-111765492D01*
X118683742Y-111570396D01*
X118878838Y-111278415D01*
X118947346Y-110934000D01*
X118878838Y-110589585D01*
X118683742Y-110297604D01*
X118391761Y-110102508D01*
X118047346Y-110034000D01*
X116584654Y-110034000D01*
X116240239Y-110102508D01*
X115948258Y-110297604D01*
X115753162Y-110589585D01*
X115684654Y-110934000D01*
X103547346Y-110934000D01*
X103478838Y-110589585D01*
X103283742Y-110297604D01*
X102991761Y-110102508D01*
X102905381Y-110085326D01*
X107731688Y-110085326D01*
X107830436Y-110324314D01*
X108013124Y-110507322D01*
X108251940Y-110606487D01*
X108510526Y-110606712D01*
X108749514Y-110507964D01*
X108826012Y-110431600D01*
X112077734Y-110431600D01*
X112153324Y-110507322D01*
X112392140Y-110606487D01*
X112650726Y-110606712D01*
X112889714Y-110507964D01*
X113072722Y-110325276D01*
X113171887Y-110086460D01*
X113172112Y-109827874D01*
X113073364Y-109588886D01*
X112890676Y-109405878D01*
X112651860Y-109306713D01*
X112393274Y-109306488D01*
X112154286Y-109405236D01*
X112077788Y-109481600D01*
X108826066Y-109481600D01*
X108750476Y-109405878D01*
X108511660Y-109306713D01*
X108253074Y-109306488D01*
X108014086Y-109405236D01*
X107831078Y-109587924D01*
X107731913Y-109826740D01*
X107731688Y-110085326D01*
X102905381Y-110085326D01*
X102647346Y-110034000D01*
X101184654Y-110034000D01*
X100840239Y-110102508D01*
X100548258Y-110297604D01*
X100456304Y-110435222D01*
X100453718Y-109428907D01*
X100548258Y-109570396D01*
X100840239Y-109765492D01*
X101184654Y-109834000D01*
X102647346Y-109834000D01*
X102991761Y-109765492D01*
X103283742Y-109570396D01*
X103478838Y-109278415D01*
X103547346Y-108934000D01*
X115684654Y-108934000D01*
X115753162Y-109278415D01*
X115948258Y-109570396D01*
X116240239Y-109765492D01*
X116584654Y-109834000D01*
X118047346Y-109834000D01*
X118391761Y-109765492D01*
X118683742Y-109570396D01*
X118878838Y-109278415D01*
X118895166Y-109196326D01*
X123251088Y-109196326D01*
X123349836Y-109435314D01*
X123426200Y-109511812D01*
X123426200Y-113114934D01*
X123350478Y-113190524D01*
X123251313Y-113429340D01*
X123251088Y-113687926D01*
X123349836Y-113926914D01*
X123532524Y-114109922D01*
X123771340Y-114209087D01*
X124029926Y-114209312D01*
X124268914Y-114110564D01*
X124451922Y-113927876D01*
X124551087Y-113689060D01*
X124551312Y-113430474D01*
X124452564Y-113191486D01*
X124376200Y-113114988D01*
X124376200Y-111912400D01*
X146807691Y-111912400D01*
X146899036Y-112371620D01*
X147159163Y-112760928D01*
X147548471Y-113021055D01*
X148007691Y-113112400D01*
X148054709Y-113112400D01*
X148513929Y-113021055D01*
X148903237Y-112760928D01*
X149163364Y-112371620D01*
X149254709Y-111912400D01*
X149163364Y-111453180D01*
X148903237Y-111063872D01*
X148513929Y-110803745D01*
X148054709Y-110712400D01*
X148007691Y-110712400D01*
X147548471Y-110803745D01*
X147159163Y-111063872D01*
X146899036Y-111453180D01*
X146807691Y-111912400D01*
X124376200Y-111912400D01*
X124376200Y-109511866D01*
X124451922Y-109436276D01*
X124551087Y-109197460D01*
X124551312Y-108938874D01*
X124452564Y-108699886D01*
X124269876Y-108516878D01*
X124031060Y-108417713D01*
X123772474Y-108417488D01*
X123533486Y-108516236D01*
X123350478Y-108698924D01*
X123251313Y-108937740D01*
X123251088Y-109196326D01*
X118895166Y-109196326D01*
X118947346Y-108934000D01*
X118878838Y-108589585D01*
X118683742Y-108297604D01*
X118391761Y-108102508D01*
X118047346Y-108034000D01*
X116584654Y-108034000D01*
X116240239Y-108102508D01*
X115948258Y-108297604D01*
X115753162Y-108589585D01*
X115684654Y-108934000D01*
X103547346Y-108934000D01*
X103478838Y-108589585D01*
X103283742Y-108297604D01*
X102991761Y-108102508D01*
X102647346Y-108034000D01*
X101184654Y-108034000D01*
X100840239Y-108102508D01*
X100548258Y-108297604D01*
X100451183Y-108442887D01*
X100449426Y-107759625D01*
X100527163Y-107812741D01*
X100666000Y-107840856D01*
X103166000Y-107840856D01*
X103295702Y-107816451D01*
X103414825Y-107739797D01*
X103494741Y-107622837D01*
X103522856Y-107484000D01*
X103522856Y-106934000D01*
X115684654Y-106934000D01*
X115753162Y-107278415D01*
X115948258Y-107570396D01*
X116240239Y-107765492D01*
X116584654Y-107834000D01*
X118047346Y-107834000D01*
X118391761Y-107765492D01*
X118683742Y-107570396D01*
X118878838Y-107278415D01*
X118947346Y-106934000D01*
X118878838Y-106589585D01*
X118683742Y-106297604D01*
X118577714Y-106226758D01*
X127808597Y-106226758D01*
X128132485Y-106612946D01*
X129274572Y-107128714D01*
X130527099Y-107168164D01*
X131699380Y-106725290D01*
X131867515Y-106612946D01*
X132191403Y-106226758D01*
X130000000Y-104035355D01*
X127808597Y-106226758D01*
X118577714Y-106226758D01*
X118391761Y-106102508D01*
X118047346Y-106034000D01*
X116584654Y-106034000D01*
X116240239Y-106102508D01*
X115948258Y-106297604D01*
X115753162Y-106589585D01*
X115684654Y-106934000D01*
X103522856Y-106934000D01*
X103522856Y-106384000D01*
X103498451Y-106254298D01*
X103421797Y-106135175D01*
X103304837Y-106055259D01*
X103166000Y-106027144D01*
X100666000Y-106027144D01*
X100536298Y-106051549D01*
X100445186Y-106110178D01*
X100441117Y-104527099D01*
X126831836Y-104527099D01*
X127274710Y-105699380D01*
X127387054Y-105867515D01*
X127773242Y-106191403D01*
X129964645Y-104000000D01*
X130035355Y-104000000D01*
X132226758Y-106191403D01*
X132612946Y-105867515D01*
X133128714Y-104725428D01*
X133168164Y-103472901D01*
X132816364Y-102541691D01*
X136518800Y-102541691D01*
X136518800Y-102588709D01*
X136610145Y-103047929D01*
X136870272Y-103437237D01*
X137243800Y-103686820D01*
X137243800Y-110502934D01*
X137168078Y-110578524D01*
X137068913Y-110817340D01*
X137068688Y-111075926D01*
X137167436Y-111314914D01*
X137350124Y-111497922D01*
X137588940Y-111597087D01*
X137847526Y-111597312D01*
X138086514Y-111498564D01*
X138269522Y-111315876D01*
X138368687Y-111077060D01*
X138368912Y-110818474D01*
X138270164Y-110579486D01*
X138193800Y-110502988D01*
X138193800Y-109372400D01*
X146807691Y-109372400D01*
X146899036Y-109831620D01*
X147159163Y-110220928D01*
X147548471Y-110481055D01*
X148007691Y-110572400D01*
X148054709Y-110572400D01*
X148513929Y-110481055D01*
X148903237Y-110220928D01*
X149163364Y-109831620D01*
X149254709Y-109372400D01*
X149163364Y-108913180D01*
X148903237Y-108523872D01*
X148513929Y-108263745D01*
X148054709Y-108172400D01*
X148007691Y-108172400D01*
X147548471Y-108263745D01*
X147159163Y-108523872D01*
X146899036Y-108913180D01*
X146807691Y-109372400D01*
X138193800Y-109372400D01*
X138193800Y-105982400D01*
X146824344Y-105982400D01*
X146824344Y-107682400D01*
X146848749Y-107812102D01*
X146925403Y-107931225D01*
X147042363Y-108011141D01*
X147181200Y-108039256D01*
X148881200Y-108039256D01*
X149010902Y-108014851D01*
X149130025Y-107938197D01*
X149209941Y-107821237D01*
X149238056Y-107682400D01*
X149238056Y-105982400D01*
X149213651Y-105852698D01*
X149136997Y-105733575D01*
X149020037Y-105653659D01*
X148881200Y-105625544D01*
X147181200Y-105625544D01*
X147051498Y-105649949D01*
X146932375Y-105726603D01*
X146852459Y-105843563D01*
X146824344Y-105982400D01*
X138193800Y-105982400D01*
X138193800Y-103686820D01*
X138567328Y-103437237D01*
X138827455Y-103047929D01*
X138918800Y-102588709D01*
X138918800Y-102541691D01*
X139058800Y-102541691D01*
X139058800Y-102588709D01*
X139150145Y-103047929D01*
X139410272Y-103437237D01*
X139799580Y-103697364D01*
X140258800Y-103788709D01*
X140718020Y-103697364D01*
X141107328Y-103437237D01*
X141367455Y-103047929D01*
X141458800Y-102588709D01*
X141458800Y-102541691D01*
X141367455Y-102082471D01*
X141122053Y-101715200D01*
X141591944Y-101715200D01*
X141591944Y-103415200D01*
X141616349Y-103544902D01*
X141693003Y-103664025D01*
X141809963Y-103743941D01*
X141948800Y-103772056D01*
X143648800Y-103772056D01*
X143778502Y-103747651D01*
X143897625Y-103670997D01*
X143977541Y-103554037D01*
X144005656Y-103415200D01*
X144005656Y-101715200D01*
X143981251Y-101585498D01*
X143904597Y-101466375D01*
X143787637Y-101386459D01*
X143648800Y-101358344D01*
X141948800Y-101358344D01*
X141819098Y-101382749D01*
X141699975Y-101459403D01*
X141620059Y-101576363D01*
X141591944Y-101715200D01*
X141122053Y-101715200D01*
X141107328Y-101693163D01*
X140718020Y-101433036D01*
X140258800Y-101341691D01*
X139799580Y-101433036D01*
X139410272Y-101693163D01*
X139150145Y-102082471D01*
X139058800Y-102541691D01*
X138918800Y-102541691D01*
X138827455Y-102082471D01*
X138567328Y-101693163D01*
X138178020Y-101433036D01*
X137718800Y-101341691D01*
X137259580Y-101433036D01*
X136870272Y-101693163D01*
X136610145Y-102082471D01*
X136518800Y-102541691D01*
X132816364Y-102541691D01*
X132725290Y-102300620D01*
X132612946Y-102132485D01*
X132226758Y-101808597D01*
X130035355Y-104000000D01*
X129964645Y-104000000D01*
X127773242Y-101808597D01*
X127387054Y-102132485D01*
X126871286Y-103274572D01*
X126831836Y-104527099D01*
X100441117Y-104527099D01*
X100441031Y-104494000D01*
X118872000Y-104494000D01*
X118908346Y-104487161D01*
X118941727Y-104465681D01*
X118964121Y-104432906D01*
X118972000Y-104394000D01*
X118972000Y-101773242D01*
X127808597Y-101773242D01*
X130000000Y-103964645D01*
X132191403Y-101773242D01*
X131867515Y-101387054D01*
X130725428Y-100871286D01*
X129472901Y-100831836D01*
X128300620Y-101274710D01*
X128132485Y-101387054D01*
X127808597Y-101773242D01*
X118972000Y-101773242D01*
X118972000Y-100430000D01*
X149506000Y-100430000D01*
X149506000Y-149506000D01*
M02*
