G04 #@! TF.FileFunction,Soldermask,Bot*
%FSLAX46Y46*%
G04 Gerber Fmt 4.6, Leading zero omitted, Abs format (unit mm)*
G04 Created by KiCad (PCBNEW 4.0.2-stable) date 6/15/2017 12:31:11 PM*
%MOMM*%
G01*
G04 APERTURE LIST*
%ADD10C,0.100000*%
%ADD11C,0.150000*%
%ADD12C,0.010000*%
%ADD13O,0.900000X1.600000*%
%ADD14R,1.500000X1.500000*%
%ADD15C,1.500000*%
%ADD16R,2.500000X1.100000*%
%ADD17O,2.500000X1.100000*%
%ADD18R,1.700000X1.700000*%
%ADD19O,1.700000X1.700000*%
%ADD20C,5.600000*%
G04 APERTURE END LIST*
D10*
D11*
X100000000Y-100000000D02*
X100000000Y-150000000D01*
X150000000Y-100000000D02*
X100000000Y-100000000D01*
X150000000Y-150000000D02*
X150000000Y-100000000D01*
X100000000Y-150000000D02*
X150000000Y-150000000D01*
D12*
G36*
X131351453Y-133197600D02*
X130806141Y-133197600D01*
X131004921Y-133398987D01*
X131334629Y-133761891D01*
X131549049Y-134036015D01*
X131627497Y-134139600D01*
X131722056Y-134259729D01*
X131822150Y-134383402D01*
X131917202Y-134497619D01*
X131996634Y-134589381D01*
X132021732Y-134616960D01*
X132103164Y-134704412D01*
X132033206Y-134795556D01*
X131897764Y-134984804D01*
X131810222Y-135124250D01*
X131755352Y-135206486D01*
X131694076Y-135285812D01*
X131688927Y-135291807D01*
X131619978Y-135374781D01*
X131539453Y-135477337D01*
X131456258Y-135587488D01*
X131379298Y-135693247D01*
X131317481Y-135782625D01*
X131281824Y-135839747D01*
X131246743Y-135892796D01*
X131188214Y-135971262D01*
X131116380Y-136062452D01*
X131041385Y-136153672D01*
X130973372Y-136232232D01*
X130937000Y-136271220D01*
X130913111Y-136297281D01*
X130870837Y-136344606D01*
X130862723Y-136353770D01*
X130801145Y-136423400D01*
X131927600Y-136423400D01*
X131927600Y-136345123D01*
X131944363Y-136268595D01*
X131991593Y-136163349D01*
X132064707Y-136037439D01*
X132159119Y-135898916D01*
X132246658Y-135784733D01*
X132317932Y-135692513D01*
X132383253Y-135601469D01*
X132430423Y-135528735D01*
X132436529Y-135518033D01*
X132476571Y-135451634D01*
X132511858Y-135403484D01*
X132520501Y-135394700D01*
X132555062Y-135356016D01*
X132595285Y-135299450D01*
X132632974Y-135251293D01*
X132663485Y-135229687D01*
X132664786Y-135229600D01*
X132673662Y-135254291D01*
X132680782Y-135325581D01*
X132685936Y-135439292D01*
X132688917Y-135591244D01*
X132689600Y-135726161D01*
X132688916Y-135905463D01*
X132686505Y-136041470D01*
X132681825Y-136141675D01*
X132674337Y-136213569D01*
X132663502Y-136264643D01*
X132648779Y-136302388D01*
X132647956Y-136304011D01*
X132612483Y-136363691D01*
X132580977Y-136401818D01*
X132578106Y-136403961D01*
X132593603Y-136409523D01*
X132652953Y-136414462D01*
X132749214Y-136418512D01*
X132875441Y-136421407D01*
X133024689Y-136422882D01*
X133076406Y-136423011D01*
X133602911Y-136423400D01*
X133573232Y-136353550D01*
X133545059Y-136294958D01*
X133522976Y-136259570D01*
X133519143Y-136230342D01*
X133515543Y-136154981D01*
X133512241Y-136038151D01*
X133509304Y-135884517D01*
X133506801Y-135698746D01*
X133504796Y-135485502D01*
X133503358Y-135249451D01*
X133502553Y-134995259D01*
X133502401Y-134823490D01*
X133502459Y-134519511D01*
X133502730Y-134262112D01*
X133503354Y-134047074D01*
X133504474Y-133870178D01*
X133506231Y-133727204D01*
X133508767Y-133613933D01*
X133512224Y-133526145D01*
X133516743Y-133459621D01*
X133522467Y-133410141D01*
X133529538Y-133373486D01*
X133538096Y-133345437D01*
X133548284Y-133321774D01*
X133553201Y-133311899D01*
X133583956Y-133250069D01*
X133602010Y-133210860D01*
X133604001Y-133204929D01*
X133579865Y-133202707D01*
X133512512Y-133200756D01*
X133409528Y-133199184D01*
X133278494Y-133198101D01*
X133126995Y-133197615D01*
X133093283Y-133197600D01*
X132920140Y-133197864D01*
X132791571Y-133199031D01*
X132701354Y-133201664D01*
X132643263Y-133206323D01*
X132611076Y-133213572D01*
X132598568Y-133223972D01*
X132599514Y-133238085D01*
X132601036Y-133242050D01*
X132634395Y-133330873D01*
X132658461Y-133419381D01*
X132674620Y-133518341D01*
X132684258Y-133638521D01*
X132688760Y-133790688D01*
X132689600Y-133930288D01*
X132689601Y-134350104D01*
X132613401Y-134277100D01*
X132565787Y-134226757D01*
X132539206Y-134189478D01*
X132537200Y-134182683D01*
X132522063Y-134156750D01*
X132482572Y-134103328D01*
X132427612Y-134033345D01*
X132366068Y-133957729D01*
X132306823Y-133887409D01*
X132258761Y-133833314D01*
X132231961Y-133807200D01*
X132209639Y-133779934D01*
X132171264Y-133723830D01*
X132143398Y-133680200D01*
X132085195Y-133592498D01*
X132022249Y-133505898D01*
X131999901Y-133477562D01*
X131955187Y-133410936D01*
X131929792Y-133349843D01*
X131927600Y-133333590D01*
X131927078Y-133289877D01*
X131921409Y-133256702D01*
X131904438Y-133232612D01*
X131870011Y-133216155D01*
X131811974Y-133205877D01*
X131724172Y-133200327D01*
X131600450Y-133198051D01*
X131434655Y-133197596D01*
X131351453Y-133197600D01*
X131351453Y-133197600D01*
G37*
X131351453Y-133197600D02*
X130806141Y-133197600D01*
X131004921Y-133398987D01*
X131334629Y-133761891D01*
X131549049Y-134036015D01*
X131627497Y-134139600D01*
X131722056Y-134259729D01*
X131822150Y-134383402D01*
X131917202Y-134497619D01*
X131996634Y-134589381D01*
X132021732Y-134616960D01*
X132103164Y-134704412D01*
X132033206Y-134795556D01*
X131897764Y-134984804D01*
X131810222Y-135124250D01*
X131755352Y-135206486D01*
X131694076Y-135285812D01*
X131688927Y-135291807D01*
X131619978Y-135374781D01*
X131539453Y-135477337D01*
X131456258Y-135587488D01*
X131379298Y-135693247D01*
X131317481Y-135782625D01*
X131281824Y-135839747D01*
X131246743Y-135892796D01*
X131188214Y-135971262D01*
X131116380Y-136062452D01*
X131041385Y-136153672D01*
X130973372Y-136232232D01*
X130937000Y-136271220D01*
X130913111Y-136297281D01*
X130870837Y-136344606D01*
X130862723Y-136353770D01*
X130801145Y-136423400D01*
X131927600Y-136423400D01*
X131927600Y-136345123D01*
X131944363Y-136268595D01*
X131991593Y-136163349D01*
X132064707Y-136037439D01*
X132159119Y-135898916D01*
X132246658Y-135784733D01*
X132317932Y-135692513D01*
X132383253Y-135601469D01*
X132430423Y-135528735D01*
X132436529Y-135518033D01*
X132476571Y-135451634D01*
X132511858Y-135403484D01*
X132520501Y-135394700D01*
X132555062Y-135356016D01*
X132595285Y-135299450D01*
X132632974Y-135251293D01*
X132663485Y-135229687D01*
X132664786Y-135229600D01*
X132673662Y-135254291D01*
X132680782Y-135325581D01*
X132685936Y-135439292D01*
X132688917Y-135591244D01*
X132689600Y-135726161D01*
X132688916Y-135905463D01*
X132686505Y-136041470D01*
X132681825Y-136141675D01*
X132674337Y-136213569D01*
X132663502Y-136264643D01*
X132648779Y-136302388D01*
X132647956Y-136304011D01*
X132612483Y-136363691D01*
X132580977Y-136401818D01*
X132578106Y-136403961D01*
X132593603Y-136409523D01*
X132652953Y-136414462D01*
X132749214Y-136418512D01*
X132875441Y-136421407D01*
X133024689Y-136422882D01*
X133076406Y-136423011D01*
X133602911Y-136423400D01*
X133573232Y-136353550D01*
X133545059Y-136294958D01*
X133522976Y-136259570D01*
X133519143Y-136230342D01*
X133515543Y-136154981D01*
X133512241Y-136038151D01*
X133509304Y-135884517D01*
X133506801Y-135698746D01*
X133504796Y-135485502D01*
X133503358Y-135249451D01*
X133502553Y-134995259D01*
X133502401Y-134823490D01*
X133502459Y-134519511D01*
X133502730Y-134262112D01*
X133503354Y-134047074D01*
X133504474Y-133870178D01*
X133506231Y-133727204D01*
X133508767Y-133613933D01*
X133512224Y-133526145D01*
X133516743Y-133459621D01*
X133522467Y-133410141D01*
X133529538Y-133373486D01*
X133538096Y-133345437D01*
X133548284Y-133321774D01*
X133553201Y-133311899D01*
X133583956Y-133250069D01*
X133602010Y-133210860D01*
X133604001Y-133204929D01*
X133579865Y-133202707D01*
X133512512Y-133200756D01*
X133409528Y-133199184D01*
X133278494Y-133198101D01*
X133126995Y-133197615D01*
X133093283Y-133197600D01*
X132920140Y-133197864D01*
X132791571Y-133199031D01*
X132701354Y-133201664D01*
X132643263Y-133206323D01*
X132611076Y-133213572D01*
X132598568Y-133223972D01*
X132599514Y-133238085D01*
X132601036Y-133242050D01*
X132634395Y-133330873D01*
X132658461Y-133419381D01*
X132674620Y-133518341D01*
X132684258Y-133638521D01*
X132688760Y-133790688D01*
X132689600Y-133930288D01*
X132689601Y-134350104D01*
X132613401Y-134277100D01*
X132565787Y-134226757D01*
X132539206Y-134189478D01*
X132537200Y-134182683D01*
X132522063Y-134156750D01*
X132482572Y-134103328D01*
X132427612Y-134033345D01*
X132366068Y-133957729D01*
X132306823Y-133887409D01*
X132258761Y-133833314D01*
X132231961Y-133807200D01*
X132209639Y-133779934D01*
X132171264Y-133723830D01*
X132143398Y-133680200D01*
X132085195Y-133592498D01*
X132022249Y-133505898D01*
X131999901Y-133477562D01*
X131955187Y-133410936D01*
X131929792Y-133349843D01*
X131927600Y-133333590D01*
X131927078Y-133289877D01*
X131921409Y-133256702D01*
X131904438Y-133232612D01*
X131870011Y-133216155D01*
X131811974Y-133205877D01*
X131724172Y-133200327D01*
X131600450Y-133198051D01*
X131434655Y-133197596D01*
X131351453Y-133197600D01*
G36*
X129768600Y-135161245D02*
X129768379Y-135432728D01*
X129767617Y-135657818D01*
X129766174Y-135840921D01*
X129763906Y-135986440D01*
X129760669Y-136098783D01*
X129756322Y-136182355D01*
X129750720Y-136241559D01*
X129743722Y-136280803D01*
X129735184Y-136304492D01*
X129731308Y-136310595D01*
X129705022Y-136348143D01*
X129694309Y-136376285D01*
X129704490Y-136396374D01*
X129740888Y-136409763D01*
X129808824Y-136417805D01*
X129913622Y-136421853D01*
X130060602Y-136423260D01*
X130175000Y-136423400D01*
X130325282Y-136422715D01*
X130456473Y-136420808D01*
X130560773Y-136417902D01*
X130630381Y-136414217D01*
X130657495Y-136409976D01*
X130657600Y-136409688D01*
X130647045Y-136380654D01*
X130620474Y-136323709D01*
X130606800Y-136296400D01*
X130593934Y-136268960D01*
X130583441Y-136238594D01*
X130575080Y-136200120D01*
X130568609Y-136148355D01*
X130563789Y-136078118D01*
X130560378Y-135984227D01*
X130558135Y-135861501D01*
X130556819Y-135704759D01*
X130556190Y-135508817D01*
X130556005Y-135268496D01*
X130556000Y-135203950D01*
X130556253Y-134946469D01*
X130557129Y-134734949D01*
X130558804Y-134564551D01*
X130561452Y-134430438D01*
X130565250Y-134327771D01*
X130570373Y-134251713D01*
X130576997Y-134197426D01*
X130585297Y-134160072D01*
X130594753Y-134136138D01*
X130633505Y-134061200D01*
X129768600Y-134061200D01*
X129768600Y-135161245D01*
X129768600Y-135161245D01*
G37*
X129768600Y-135161245D02*
X129768379Y-135432728D01*
X129767617Y-135657818D01*
X129766174Y-135840921D01*
X129763906Y-135986440D01*
X129760669Y-136098783D01*
X129756322Y-136182355D01*
X129750720Y-136241559D01*
X129743722Y-136280803D01*
X129735184Y-136304492D01*
X129731308Y-136310595D01*
X129705022Y-136348143D01*
X129694309Y-136376285D01*
X129704490Y-136396374D01*
X129740888Y-136409763D01*
X129808824Y-136417805D01*
X129913622Y-136421853D01*
X130060602Y-136423260D01*
X130175000Y-136423400D01*
X130325282Y-136422715D01*
X130456473Y-136420808D01*
X130560773Y-136417902D01*
X130630381Y-136414217D01*
X130657495Y-136409976D01*
X130657600Y-136409688D01*
X130647045Y-136380654D01*
X130620474Y-136323709D01*
X130606800Y-136296400D01*
X130593934Y-136268960D01*
X130583441Y-136238594D01*
X130575080Y-136200120D01*
X130568609Y-136148355D01*
X130563789Y-136078118D01*
X130560378Y-135984227D01*
X130558135Y-135861501D01*
X130556819Y-135704759D01*
X130556190Y-135508817D01*
X130556005Y-135268496D01*
X130556000Y-135203950D01*
X130556253Y-134946469D01*
X130557129Y-134734949D01*
X130558804Y-134564551D01*
X130561452Y-134430438D01*
X130565250Y-134327771D01*
X130570373Y-134251713D01*
X130576997Y-134197426D01*
X130585297Y-134160072D01*
X130594753Y-134136138D01*
X130633505Y-134061200D01*
X129768600Y-134061200D01*
X129768600Y-135161245D01*
G36*
X130009259Y-132295160D02*
X129891655Y-132361595D01*
X129798177Y-132464245D01*
X129754388Y-132550324D01*
X129723778Y-132688814D01*
X129732879Y-132826791D01*
X129780227Y-132948284D01*
X129792612Y-132967050D01*
X129883051Y-133054608D01*
X130001929Y-133114753D01*
X130134867Y-133144618D01*
X130267487Y-133141334D01*
X130385410Y-133102032D01*
X130406194Y-133089444D01*
X130488463Y-133010594D01*
X130556286Y-132901970D01*
X130598453Y-132784495D01*
X130606800Y-132714999D01*
X130587526Y-132605775D01*
X130537010Y-132491310D01*
X130466218Y-132392358D01*
X130410558Y-132343495D01*
X130278339Y-132283076D01*
X130141363Y-132267976D01*
X130009259Y-132295160D01*
X130009259Y-132295160D01*
G37*
X130009259Y-132295160D02*
X129891655Y-132361595D01*
X129798177Y-132464245D01*
X129754388Y-132550324D01*
X129723778Y-132688814D01*
X129732879Y-132826791D01*
X129780227Y-132948284D01*
X129792612Y-132967050D01*
X129883051Y-133054608D01*
X130001929Y-133114753D01*
X130134867Y-133144618D01*
X130267487Y-133141334D01*
X130385410Y-133102032D01*
X130406194Y-133089444D01*
X130488463Y-133010594D01*
X130556286Y-132901970D01*
X130598453Y-132784495D01*
X130606800Y-132714999D01*
X130587526Y-132605775D01*
X130537010Y-132491310D01*
X130466218Y-132392358D01*
X130410558Y-132343495D01*
X130278339Y-132283076D01*
X130141363Y-132267976D01*
X130009259Y-132295160D01*
D13*
X102108000Y-131826000D03*
X103378000Y-131826000D03*
X104648000Y-131826000D03*
X105918000Y-131826000D03*
X107188000Y-131826000D03*
X108458000Y-131826000D03*
X109728000Y-131826000D03*
X110998000Y-131826000D03*
D14*
X146812000Y-144272000D03*
D15*
X146812000Y-146772000D03*
D16*
X101916000Y-106934000D03*
D17*
X101916000Y-108934000D03*
X101916000Y-110934000D03*
X101916000Y-112934000D03*
X101916000Y-114934000D03*
X101916000Y-116934000D03*
X101916000Y-118934000D03*
X101916000Y-120934000D03*
X117316000Y-120934000D03*
X117216000Y-118934000D03*
X117316000Y-116934000D03*
X117316000Y-114934000D03*
X117316000Y-112934000D03*
X117316000Y-110934000D03*
X117316000Y-108934000D03*
X117316000Y-106934000D03*
D18*
X114300000Y-125730000D03*
D19*
X111760000Y-125730000D03*
X109220000Y-125730000D03*
X106680000Y-125730000D03*
D18*
X148082000Y-119634000D03*
D19*
X148082000Y-122174000D03*
X148082000Y-124714000D03*
X148082000Y-127254000D03*
D18*
X142798800Y-102565200D03*
D19*
X140258800Y-102565200D03*
X137718800Y-102565200D03*
D18*
X148031200Y-106832400D03*
D19*
X148031200Y-109372400D03*
X148031200Y-111912400D03*
X148031200Y-114452400D03*
D20*
X130000000Y-146000000D03*
X130000000Y-104000000D03*
M02*
