M48
;DRILL file {KiCad 4.0.2-stable} date 6/15/2017 12:31:15 PM
;FORMAT={3:3/ absolute / metric / suppress leading zeros}
FMAT,2
METRIC,TZ
T1C0.400
T2C0.650
T3C1.000
T4C3.200
%
G90
G05
M71
T1
X101600Y-128676
X103124Y-128651
X104140Y-135128
X105000Y-118946
X105918Y-133452
X106680Y-134468
X107544Y-133452
X107950Y-127762
X108382Y-109957
X112522Y-109957
X116891Y-129337
X119939Y-128727
X120142Y-112878
X123901Y-109068
X123901Y-113559
X128270Y-120142
X134366Y-120142
X134569Y-111760
X135839Y-121158
X135839Y-124460
X137719Y-110947
X142231Y-113538
X143612Y-119177
X145542Y-127508
T2
X102616Y-106934
X102616Y-108934
X102616Y-110934
X102616Y-112934
X102616Y-114934
X102616Y-116934
X102616Y-118934
X102616Y-120934
X116616Y-106934
X116616Y-108934
X116616Y-110934
X116616Y-112934
X116616Y-114934
X116616Y-116934
X116616Y-118934
X116616Y-120934
T3
X106680Y-125730
X109220Y-125730
X111760Y-125730
X114300Y-125730
X137719Y-102565
X140259Y-102565
X142799Y-102565
X146812Y-144272
X146812Y-146772
X148031Y-106832
X148031Y-109372
X148031Y-111912
X148031Y-114452
X148082Y-119634
X148082Y-122174
X148082Y-124714
X148082Y-127254
T4
X130000Y-104000
X130000Y-146000
T0
M30
