%FSLAX45Y45*%
G04 Gerber Fmt 4.5, Leading zero omitted, Abs format (unit mm)*
G04 Created by KiCad (PCBNEW 4.0.2-stable) date 6/15/2017 12:31:15 PM*
%MOMM*%
G01*
G04 APERTURE LIST*
%ADD10C,0.127000*%
%ADD11C,0.150000*%
%ADD12C,0.200000*%
%ADD13C,0.300000*%
G04 APERTURE END LIST*
D10*
D11*
X10000000Y-10000000D02*
X10000000Y-15000000D01*
X15000000Y-10000000D02*
X10000000Y-10000000D01*
X15000000Y-15000000D02*
X15000000Y-10000000D01*
X10000000Y-15000000D02*
X15000000Y-15000000D01*
D12*
X10140000Y-12847640D02*
X10180000Y-12887640D01*
X10180000Y-12847640D02*
X10140000Y-12887640D01*
X10292400Y-12845100D02*
X10332400Y-12885100D01*
X10332400Y-12845100D02*
X10292400Y-12885100D01*
X10394000Y-13492800D02*
X10434000Y-13532800D01*
X10434000Y-13492800D02*
X10394000Y-13532800D01*
X10479998Y-11874579D02*
X10519998Y-11914579D01*
X10519998Y-11874579D02*
X10479998Y-11914579D01*
X10571800Y-13325160D02*
X10611800Y-13365160D01*
X10611800Y-13325160D02*
X10571800Y-13365160D01*
X10648000Y-13426760D02*
X10688000Y-13466760D01*
X10688000Y-13426760D02*
X10648000Y-13466760D01*
X10734360Y-13325160D02*
X10774360Y-13365160D01*
X10774360Y-13325160D02*
X10734360Y-13365160D01*
X10775000Y-12756200D02*
X10815000Y-12796200D01*
X10815000Y-12756200D02*
X10775000Y-12796200D01*
X10818180Y-10975660D02*
X10858180Y-11015660D01*
X10858180Y-10975660D02*
X10818180Y-11015660D01*
X11232200Y-10975660D02*
X11272200Y-11015660D01*
X11272200Y-10975660D02*
X11232200Y-11015660D01*
X11669080Y-12913680D02*
X11709080Y-12953680D01*
X11709080Y-12913680D02*
X11669080Y-12953680D01*
X11973880Y-12852720D02*
X12013880Y-12892720D01*
X12013880Y-12852720D02*
X11973880Y-12892720D01*
X11994200Y-11267760D02*
X12034200Y-11307760D01*
X12034200Y-11267760D02*
X11994200Y-11307760D01*
X12370120Y-10886760D02*
X12410120Y-10926760D01*
X12410120Y-10886760D02*
X12370120Y-10926760D01*
X12370120Y-11335920D02*
X12410120Y-11375920D01*
X12410120Y-11335920D02*
X12370120Y-11375920D01*
X12807000Y-11994200D02*
X12847000Y-12034200D01*
X12847000Y-11994200D02*
X12807000Y-12034200D01*
X13416600Y-11994200D02*
X13456600Y-12034200D01*
X13456600Y-11994200D02*
X13416600Y-12034200D01*
X13436920Y-11156000D02*
X13476920Y-11196000D01*
X13476920Y-11156000D02*
X13436920Y-11196000D01*
X13563920Y-12095800D02*
X13603920Y-12135800D01*
X13603920Y-12095800D02*
X13563920Y-12135800D01*
X13563920Y-12426000D02*
X13603920Y-12466000D01*
X13603920Y-12426000D02*
X13563920Y-12466000D01*
X13751880Y-11074720D02*
X13791880Y-11114720D01*
X13791880Y-11074720D02*
X13751880Y-11114720D01*
X14203100Y-11333800D02*
X14243100Y-11373800D01*
X14243100Y-11333800D02*
X14203100Y-11373800D01*
X14341160Y-11897680D02*
X14381160Y-11937680D01*
X14381160Y-11897680D02*
X14341160Y-11937680D01*
X14534200Y-12730800D02*
X14574200Y-12770800D01*
X14574200Y-12730800D02*
X14534200Y-12770800D01*
X10294100Y-10693400D02*
G75*
G03X10294100Y-10693400I-32500J0D01*
G01*
X10294100Y-10893400D02*
G75*
G03X10294100Y-10893400I-32500J0D01*
G01*
X10294100Y-11093400D02*
G75*
G03X10294100Y-11093400I-32500J0D01*
G01*
X10294100Y-11293400D02*
G75*
G03X10294100Y-11293400I-32500J0D01*
G01*
X10294100Y-11493400D02*
G75*
G03X10294100Y-11493400I-32500J0D01*
G01*
X10294100Y-11693400D02*
G75*
G03X10294100Y-11693400I-32500J0D01*
G01*
X10294100Y-11893400D02*
G75*
G03X10294100Y-11893400I-32500J0D01*
G01*
X10294100Y-12093400D02*
G75*
G03X10294100Y-12093400I-32500J0D01*
G01*
X11694100Y-10693400D02*
G75*
G03X11694100Y-10693400I-32500J0D01*
G01*
X11694100Y-10893400D02*
G75*
G03X11694100Y-10893400I-32500J0D01*
G01*
X11694100Y-11093400D02*
G75*
G03X11694100Y-11093400I-32500J0D01*
G01*
X11694100Y-11293400D02*
G75*
G03X11694100Y-11293400I-32500J0D01*
G01*
X11694100Y-11493400D02*
G75*
G03X11694100Y-11493400I-32500J0D01*
G01*
X11694100Y-11693400D02*
G75*
G03X11694100Y-11693400I-32500J0D01*
G01*
X11694100Y-11893400D02*
G75*
G03X11694100Y-11893400I-32500J0D01*
G01*
X11694100Y-12093400D02*
G75*
G03X11694100Y-12093400I-32500J0D01*
G01*
X10668000Y-12523000D02*
X10668000Y-12623000D01*
X10618000Y-12573000D02*
X10718000Y-12573000D01*
X10922000Y-12523000D02*
X10922000Y-12623000D01*
X10872000Y-12573000D02*
X10972000Y-12573000D01*
X11176000Y-12523000D02*
X11176000Y-12623000D01*
X11126000Y-12573000D02*
X11226000Y-12573000D01*
X11430000Y-12523000D02*
X11430000Y-12623000D01*
X11380000Y-12573000D02*
X11480000Y-12573000D01*
X13771880Y-10206520D02*
X13771880Y-10306520D01*
X13721880Y-10256520D02*
X13821880Y-10256520D01*
X14025880Y-10206520D02*
X14025880Y-10306520D01*
X13975880Y-10256520D02*
X14075880Y-10256520D01*
X14279880Y-10206520D02*
X14279880Y-10306520D01*
X14229880Y-10256520D02*
X14329880Y-10256520D01*
X14681200Y-14377200D02*
X14681200Y-14477200D01*
X14631200Y-14427200D02*
X14731200Y-14427200D01*
X14681200Y-14627200D02*
X14681200Y-14727200D01*
X14631200Y-14677200D02*
X14731200Y-14677200D01*
X14803120Y-10633240D02*
X14803120Y-10733240D01*
X14753120Y-10683240D02*
X14853120Y-10683240D01*
X14803120Y-10887240D02*
X14803120Y-10987240D01*
X14753120Y-10937240D02*
X14853120Y-10937240D01*
X14803120Y-11141240D02*
X14803120Y-11241240D01*
X14753120Y-11191240D02*
X14853120Y-11191240D01*
X14803120Y-11395240D02*
X14803120Y-11495240D01*
X14753120Y-11445240D02*
X14853120Y-11445240D01*
X14808200Y-11913400D02*
X14808200Y-12013400D01*
X14758200Y-11963400D02*
X14858200Y-11963400D01*
X14808200Y-12167400D02*
X14808200Y-12267400D01*
X14758200Y-12217400D02*
X14858200Y-12217400D01*
X14808200Y-12421400D02*
X14808200Y-12521400D01*
X14758200Y-12471400D02*
X14858200Y-12471400D01*
X14808200Y-12675400D02*
X14808200Y-12775400D01*
X14758200Y-12725400D02*
X14858200Y-12725400D01*
X13113138Y-10513138D02*
X13113138Y-10286862D01*
X12886862Y-10286862D01*
X12886862Y-10513138D01*
X13113138Y-10513138D01*
X13113138Y-14713138D02*
X13113138Y-14486862D01*
X12886862Y-14486862D01*
X12886862Y-14713138D01*
X13113138Y-14713138D01*
D13*
X10263929Y-15473214D02*
X10263929Y-15173214D01*
X10335357Y-15173214D01*
X10378214Y-15187500D01*
X10406786Y-15216071D01*
X10421071Y-15244643D01*
X10435357Y-15301786D01*
X10435357Y-15344643D01*
X10421071Y-15401786D01*
X10406786Y-15430357D01*
X10378214Y-15458929D01*
X10335357Y-15473214D01*
X10263929Y-15473214D01*
X10563929Y-15473214D02*
X10563929Y-15273214D01*
X10563929Y-15330357D02*
X10578214Y-15301786D01*
X10592500Y-15287500D01*
X10621071Y-15273214D01*
X10649643Y-15273214D01*
X10749643Y-15473214D02*
X10749643Y-15273214D01*
X10749643Y-15173214D02*
X10735357Y-15187500D01*
X10749643Y-15201786D01*
X10763929Y-15187500D01*
X10749643Y-15173214D01*
X10749643Y-15201786D01*
X10935357Y-15473214D02*
X10906786Y-15458929D01*
X10892500Y-15430357D01*
X10892500Y-15173214D01*
X11092500Y-15473214D02*
X11063929Y-15458929D01*
X11049643Y-15430357D01*
X11049643Y-15173214D01*
X11435357Y-15473214D02*
X11435357Y-15173214D01*
X11535357Y-15387500D01*
X11635357Y-15173214D01*
X11635357Y-15473214D01*
X11906786Y-15473214D02*
X11906786Y-15316071D01*
X11892500Y-15287500D01*
X11863928Y-15273214D01*
X11806786Y-15273214D01*
X11778214Y-15287500D01*
X11906786Y-15458929D02*
X11878214Y-15473214D01*
X11806786Y-15473214D01*
X11778214Y-15458929D01*
X11763928Y-15430357D01*
X11763928Y-15401786D01*
X11778214Y-15373214D01*
X11806786Y-15358929D01*
X11878214Y-15358929D01*
X11906786Y-15344643D01*
X12049643Y-15273214D02*
X12049643Y-15573214D01*
X12049643Y-15287500D02*
X12078214Y-15273214D01*
X12135357Y-15273214D01*
X12163928Y-15287500D01*
X12178214Y-15301786D01*
X12192500Y-15330357D01*
X12192500Y-15416071D01*
X12178214Y-15444643D01*
X12163928Y-15458929D01*
X12135357Y-15473214D01*
X12078214Y-15473214D01*
X12049643Y-15458929D01*
X12321071Y-15444643D02*
X12335357Y-15458929D01*
X12321071Y-15473214D01*
X12306786Y-15458929D01*
X12321071Y-15444643D01*
X12321071Y-15473214D01*
X12321071Y-15287500D02*
X12335357Y-15301786D01*
X12321071Y-15316071D01*
X12306786Y-15301786D01*
X12321071Y-15287500D01*
X12321071Y-15316071D01*
X9952500Y-15947500D02*
X9992500Y-15987500D01*
X9992500Y-15947500D02*
X9952500Y-15987500D01*
X10321071Y-15803214D02*
X10349643Y-15803214D01*
X10378214Y-15817500D01*
X10392500Y-15831786D01*
X10406786Y-15860357D01*
X10421071Y-15917500D01*
X10421071Y-15988929D01*
X10406786Y-16046071D01*
X10392500Y-16074643D01*
X10378214Y-16088929D01*
X10349643Y-16103214D01*
X10321071Y-16103214D01*
X10292500Y-16088929D01*
X10278214Y-16074643D01*
X10263929Y-16046071D01*
X10249643Y-15988929D01*
X10249643Y-15917500D01*
X10263929Y-15860357D01*
X10278214Y-15831786D01*
X10292500Y-15817500D01*
X10321071Y-15803214D01*
X10549643Y-16074643D02*
X10563929Y-16088929D01*
X10549643Y-16103214D01*
X10535357Y-16088929D01*
X10549643Y-16074643D01*
X10549643Y-16103214D01*
X10821071Y-15903214D02*
X10821071Y-16103214D01*
X10749643Y-15788929D02*
X10678214Y-16003214D01*
X10863928Y-16003214D01*
X11035357Y-15803214D02*
X11063929Y-15803214D01*
X11092500Y-15817500D01*
X11106786Y-15831786D01*
X11121071Y-15860357D01*
X11135357Y-15917500D01*
X11135357Y-15988929D01*
X11121071Y-16046071D01*
X11106786Y-16074643D01*
X11092500Y-16088929D01*
X11063929Y-16103214D01*
X11035357Y-16103214D01*
X11006786Y-16088929D01*
X10992500Y-16074643D01*
X10978214Y-16046071D01*
X10963929Y-15988929D01*
X10963929Y-15917500D01*
X10978214Y-15860357D01*
X10992500Y-15831786D01*
X11006786Y-15817500D01*
X11035357Y-15803214D01*
X11263928Y-16103214D02*
X11263928Y-15903214D01*
X11263928Y-15931786D02*
X11278214Y-15917500D01*
X11306786Y-15903214D01*
X11349643Y-15903214D01*
X11378214Y-15917500D01*
X11392500Y-15946071D01*
X11392500Y-16103214D01*
X11392500Y-15946071D02*
X11406786Y-15917500D01*
X11435357Y-15903214D01*
X11478214Y-15903214D01*
X11506786Y-15917500D01*
X11521071Y-15946071D01*
X11521071Y-16103214D01*
X11663928Y-16103214D02*
X11663928Y-15903214D01*
X11663928Y-15931786D02*
X11678214Y-15917500D01*
X11706786Y-15903214D01*
X11749643Y-15903214D01*
X11778214Y-15917500D01*
X11792500Y-15946071D01*
X11792500Y-16103214D01*
X11792500Y-15946071D02*
X11806786Y-15917500D01*
X11835357Y-15903214D01*
X11878214Y-15903214D01*
X11906786Y-15917500D01*
X11921071Y-15946071D01*
X11921071Y-16103214D01*
X12506786Y-15788929D02*
X12249643Y-16174643D01*
X12892500Y-15803214D02*
X12921071Y-15803214D01*
X12949643Y-15817500D01*
X12963928Y-15831786D01*
X12978214Y-15860357D01*
X12992500Y-15917500D01*
X12992500Y-15988929D01*
X12978214Y-16046071D01*
X12963928Y-16074643D01*
X12949643Y-16088929D01*
X12921071Y-16103214D01*
X12892500Y-16103214D01*
X12863928Y-16088929D01*
X12849643Y-16074643D01*
X12835357Y-16046071D01*
X12821071Y-15988929D01*
X12821071Y-15917500D01*
X12835357Y-15860357D01*
X12849643Y-15831786D01*
X12863928Y-15817500D01*
X12892500Y-15803214D01*
X13121071Y-16074643D02*
X13135357Y-16088929D01*
X13121071Y-16103214D01*
X13106786Y-16088929D01*
X13121071Y-16074643D01*
X13121071Y-16103214D01*
X13321071Y-15803214D02*
X13349643Y-15803214D01*
X13378214Y-15817500D01*
X13392500Y-15831786D01*
X13406785Y-15860357D01*
X13421071Y-15917500D01*
X13421071Y-15988929D01*
X13406785Y-16046071D01*
X13392500Y-16074643D01*
X13378214Y-16088929D01*
X13349643Y-16103214D01*
X13321071Y-16103214D01*
X13292500Y-16088929D01*
X13278214Y-16074643D01*
X13263928Y-16046071D01*
X13249643Y-15988929D01*
X13249643Y-15917500D01*
X13263928Y-15860357D01*
X13278214Y-15831786D01*
X13292500Y-15817500D01*
X13321071Y-15803214D01*
X13706785Y-16103214D02*
X13535357Y-16103214D01*
X13621071Y-16103214D02*
X13621071Y-15803214D01*
X13592500Y-15846071D01*
X13563928Y-15874643D01*
X13535357Y-15888929D01*
X13963928Y-15803214D02*
X13906785Y-15803214D01*
X13878214Y-15817500D01*
X13863928Y-15831786D01*
X13835357Y-15874643D01*
X13821071Y-15931786D01*
X13821071Y-16046071D01*
X13835357Y-16074643D01*
X13849643Y-16088929D01*
X13878214Y-16103214D01*
X13935357Y-16103214D01*
X13963928Y-16088929D01*
X13978214Y-16074643D01*
X13992500Y-16046071D01*
X13992500Y-15974643D01*
X13978214Y-15946071D01*
X13963928Y-15931786D01*
X13935357Y-15917500D01*
X13878214Y-15917500D01*
X13849643Y-15931786D01*
X13835357Y-15946071D01*
X13821071Y-15974643D01*
X14106786Y-15803214D02*
X14106786Y-15860357D01*
X14221071Y-15803214D02*
X14221071Y-15860357D01*
X14663928Y-16217500D02*
X14649643Y-16203214D01*
X14621071Y-16160357D01*
X14606785Y-16131786D01*
X14592500Y-16088929D01*
X14578214Y-16017500D01*
X14578214Y-15960357D01*
X14592500Y-15888929D01*
X14606785Y-15846071D01*
X14621071Y-15817500D01*
X14649643Y-15774643D01*
X14663928Y-15760357D01*
X14763928Y-15831786D02*
X14778214Y-15817500D01*
X14806785Y-15803214D01*
X14878214Y-15803214D01*
X14906785Y-15817500D01*
X14921071Y-15831786D01*
X14935357Y-15860357D01*
X14935357Y-15888929D01*
X14921071Y-15931786D01*
X14749643Y-16103214D01*
X14935357Y-16103214D01*
X15192500Y-15903214D02*
X15192500Y-16103214D01*
X15121071Y-15788929D02*
X15049643Y-16003214D01*
X15235357Y-16003214D01*
X15578214Y-16103214D02*
X15578214Y-15803214D01*
X15706785Y-16103214D02*
X15706785Y-15946071D01*
X15692500Y-15917500D01*
X15663928Y-15903214D01*
X15621071Y-15903214D01*
X15592500Y-15917500D01*
X15578214Y-15931786D01*
X15892500Y-16103214D02*
X15863928Y-16088929D01*
X15849643Y-16074643D01*
X15835357Y-16046071D01*
X15835357Y-15960357D01*
X15849643Y-15931786D01*
X15863928Y-15917500D01*
X15892500Y-15903214D01*
X15935357Y-15903214D01*
X15963928Y-15917500D01*
X15978214Y-15931786D01*
X15992500Y-15960357D01*
X15992500Y-16046071D01*
X15978214Y-16074643D01*
X15963928Y-16088929D01*
X15935357Y-16103214D01*
X15892500Y-16103214D01*
X16163928Y-16103214D02*
X16135357Y-16088929D01*
X16121071Y-16060357D01*
X16121071Y-15803214D01*
X16392500Y-16088929D02*
X16363928Y-16103214D01*
X16306786Y-16103214D01*
X16278214Y-16088929D01*
X16263928Y-16060357D01*
X16263928Y-15946071D01*
X16278214Y-15917500D01*
X16306786Y-15903214D01*
X16363928Y-15903214D01*
X16392500Y-15917500D01*
X16406786Y-15946071D01*
X16406786Y-15974643D01*
X16263928Y-16003214D01*
X16521071Y-16088929D02*
X16549643Y-16103214D01*
X16606786Y-16103214D01*
X16635357Y-16088929D01*
X16649643Y-16060357D01*
X16649643Y-16046071D01*
X16635357Y-16017500D01*
X16606786Y-16003214D01*
X16563928Y-16003214D01*
X16535357Y-15988929D01*
X16521071Y-15960357D01*
X16521071Y-15946071D01*
X16535357Y-15917500D01*
X16563928Y-15903214D01*
X16606786Y-15903214D01*
X16635357Y-15917500D01*
X16749643Y-16217500D02*
X16763928Y-16203214D01*
X16792500Y-16160357D01*
X16806786Y-16131786D01*
X16821071Y-16088929D01*
X16835357Y-16017500D01*
X16835357Y-15960357D01*
X16821071Y-15888929D01*
X16806786Y-15846071D01*
X16792500Y-15817500D01*
X16763928Y-15774643D01*
X16749643Y-15760357D01*
X9992500Y-16363500D02*
G75*
G03X9992500Y-16363500I-32500J0D01*
G01*
X10321071Y-16199214D02*
X10349643Y-16199214D01*
X10378214Y-16213500D01*
X10392500Y-16227786D01*
X10406786Y-16256357D01*
X10421071Y-16313500D01*
X10421071Y-16384929D01*
X10406786Y-16442071D01*
X10392500Y-16470643D01*
X10378214Y-16484929D01*
X10349643Y-16499214D01*
X10321071Y-16499214D01*
X10292500Y-16484929D01*
X10278214Y-16470643D01*
X10263929Y-16442071D01*
X10249643Y-16384929D01*
X10249643Y-16313500D01*
X10263929Y-16256357D01*
X10278214Y-16227786D01*
X10292500Y-16213500D01*
X10321071Y-16199214D01*
X10549643Y-16470643D02*
X10563929Y-16484929D01*
X10549643Y-16499214D01*
X10535357Y-16484929D01*
X10549643Y-16470643D01*
X10549643Y-16499214D01*
X10821071Y-16199214D02*
X10763928Y-16199214D01*
X10735357Y-16213500D01*
X10721071Y-16227786D01*
X10692500Y-16270643D01*
X10678214Y-16327786D01*
X10678214Y-16442071D01*
X10692500Y-16470643D01*
X10706786Y-16484929D01*
X10735357Y-16499214D01*
X10792500Y-16499214D01*
X10821071Y-16484929D01*
X10835357Y-16470643D01*
X10849643Y-16442071D01*
X10849643Y-16370643D01*
X10835357Y-16342071D01*
X10821071Y-16327786D01*
X10792500Y-16313500D01*
X10735357Y-16313500D01*
X10706786Y-16327786D01*
X10692500Y-16342071D01*
X10678214Y-16370643D01*
X11121071Y-16199214D02*
X10978214Y-16199214D01*
X10963929Y-16342071D01*
X10978214Y-16327786D01*
X11006786Y-16313500D01*
X11078214Y-16313500D01*
X11106786Y-16327786D01*
X11121071Y-16342071D01*
X11135357Y-16370643D01*
X11135357Y-16442071D01*
X11121071Y-16470643D01*
X11106786Y-16484929D01*
X11078214Y-16499214D01*
X11006786Y-16499214D01*
X10978214Y-16484929D01*
X10963929Y-16470643D01*
X11263928Y-16499214D02*
X11263928Y-16299214D01*
X11263928Y-16327786D02*
X11278214Y-16313500D01*
X11306786Y-16299214D01*
X11349643Y-16299214D01*
X11378214Y-16313500D01*
X11392500Y-16342071D01*
X11392500Y-16499214D01*
X11392500Y-16342071D02*
X11406786Y-16313500D01*
X11435357Y-16299214D01*
X11478214Y-16299214D01*
X11506786Y-16313500D01*
X11521071Y-16342071D01*
X11521071Y-16499214D01*
X11663928Y-16499214D02*
X11663928Y-16299214D01*
X11663928Y-16327786D02*
X11678214Y-16313500D01*
X11706786Y-16299214D01*
X11749643Y-16299214D01*
X11778214Y-16313500D01*
X11792500Y-16342071D01*
X11792500Y-16499214D01*
X11792500Y-16342071D02*
X11806786Y-16313500D01*
X11835357Y-16299214D01*
X11878214Y-16299214D01*
X11906786Y-16313500D01*
X11921071Y-16342071D01*
X11921071Y-16499214D01*
X12506786Y-16184929D02*
X12249643Y-16570643D01*
X12892500Y-16199214D02*
X12921071Y-16199214D01*
X12949643Y-16213500D01*
X12963928Y-16227786D01*
X12978214Y-16256357D01*
X12992500Y-16313500D01*
X12992500Y-16384929D01*
X12978214Y-16442071D01*
X12963928Y-16470643D01*
X12949643Y-16484929D01*
X12921071Y-16499214D01*
X12892500Y-16499214D01*
X12863928Y-16484929D01*
X12849643Y-16470643D01*
X12835357Y-16442071D01*
X12821071Y-16384929D01*
X12821071Y-16313500D01*
X12835357Y-16256357D01*
X12849643Y-16227786D01*
X12863928Y-16213500D01*
X12892500Y-16199214D01*
X13121071Y-16470643D02*
X13135357Y-16484929D01*
X13121071Y-16499214D01*
X13106786Y-16484929D01*
X13121071Y-16470643D01*
X13121071Y-16499214D01*
X13321071Y-16199214D02*
X13349643Y-16199214D01*
X13378214Y-16213500D01*
X13392500Y-16227786D01*
X13406785Y-16256357D01*
X13421071Y-16313500D01*
X13421071Y-16384929D01*
X13406785Y-16442071D01*
X13392500Y-16470643D01*
X13378214Y-16484929D01*
X13349643Y-16499214D01*
X13321071Y-16499214D01*
X13292500Y-16484929D01*
X13278214Y-16470643D01*
X13263928Y-16442071D01*
X13249643Y-16384929D01*
X13249643Y-16313500D01*
X13263928Y-16256357D01*
X13278214Y-16227786D01*
X13292500Y-16213500D01*
X13321071Y-16199214D01*
X13535357Y-16227786D02*
X13549643Y-16213500D01*
X13578214Y-16199214D01*
X13649643Y-16199214D01*
X13678214Y-16213500D01*
X13692500Y-16227786D01*
X13706785Y-16256357D01*
X13706785Y-16284929D01*
X13692500Y-16327786D01*
X13521071Y-16499214D01*
X13706785Y-16499214D01*
X13963928Y-16199214D02*
X13906785Y-16199214D01*
X13878214Y-16213500D01*
X13863928Y-16227786D01*
X13835357Y-16270643D01*
X13821071Y-16327786D01*
X13821071Y-16442071D01*
X13835357Y-16470643D01*
X13849643Y-16484929D01*
X13878214Y-16499214D01*
X13935357Y-16499214D01*
X13963928Y-16484929D01*
X13978214Y-16470643D01*
X13992500Y-16442071D01*
X13992500Y-16370643D01*
X13978214Y-16342071D01*
X13963928Y-16327786D01*
X13935357Y-16313500D01*
X13878214Y-16313500D01*
X13849643Y-16327786D01*
X13835357Y-16342071D01*
X13821071Y-16370643D01*
X14106786Y-16199214D02*
X14106786Y-16256357D01*
X14221071Y-16199214D02*
X14221071Y-16256357D01*
X14663928Y-16613500D02*
X14649643Y-16599214D01*
X14621071Y-16556357D01*
X14606785Y-16527786D01*
X14592500Y-16484929D01*
X14578214Y-16413500D01*
X14578214Y-16356357D01*
X14592500Y-16284929D01*
X14606785Y-16242071D01*
X14621071Y-16213500D01*
X14649643Y-16170643D01*
X14663928Y-16156357D01*
X14935357Y-16499214D02*
X14763928Y-16499214D01*
X14849643Y-16499214D02*
X14849643Y-16199214D01*
X14821071Y-16242071D01*
X14792500Y-16270643D01*
X14763928Y-16284929D01*
X15192500Y-16199214D02*
X15135357Y-16199214D01*
X15106785Y-16213500D01*
X15092500Y-16227786D01*
X15063928Y-16270643D01*
X15049643Y-16327786D01*
X15049643Y-16442071D01*
X15063928Y-16470643D01*
X15078214Y-16484929D01*
X15106785Y-16499214D01*
X15163928Y-16499214D01*
X15192500Y-16484929D01*
X15206785Y-16470643D01*
X15221071Y-16442071D01*
X15221071Y-16370643D01*
X15206785Y-16342071D01*
X15192500Y-16327786D01*
X15163928Y-16313500D01*
X15106785Y-16313500D01*
X15078214Y-16327786D01*
X15063928Y-16342071D01*
X15049643Y-16370643D01*
X15578214Y-16499214D02*
X15578214Y-16199214D01*
X15706785Y-16499214D02*
X15706785Y-16342071D01*
X15692500Y-16313500D01*
X15663928Y-16299214D01*
X15621071Y-16299214D01*
X15592500Y-16313500D01*
X15578214Y-16327786D01*
X15892500Y-16499214D02*
X15863928Y-16484929D01*
X15849643Y-16470643D01*
X15835357Y-16442071D01*
X15835357Y-16356357D01*
X15849643Y-16327786D01*
X15863928Y-16313500D01*
X15892500Y-16299214D01*
X15935357Y-16299214D01*
X15963928Y-16313500D01*
X15978214Y-16327786D01*
X15992500Y-16356357D01*
X15992500Y-16442071D01*
X15978214Y-16470643D01*
X15963928Y-16484929D01*
X15935357Y-16499214D01*
X15892500Y-16499214D01*
X16163928Y-16499214D02*
X16135357Y-16484929D01*
X16121071Y-16456357D01*
X16121071Y-16199214D01*
X16392500Y-16484929D02*
X16363928Y-16499214D01*
X16306786Y-16499214D01*
X16278214Y-16484929D01*
X16263928Y-16456357D01*
X16263928Y-16342071D01*
X16278214Y-16313500D01*
X16306786Y-16299214D01*
X16363928Y-16299214D01*
X16392500Y-16313500D01*
X16406786Y-16342071D01*
X16406786Y-16370643D01*
X16263928Y-16399214D01*
X16521071Y-16484929D02*
X16549643Y-16499214D01*
X16606786Y-16499214D01*
X16635357Y-16484929D01*
X16649643Y-16456357D01*
X16649643Y-16442071D01*
X16635357Y-16413500D01*
X16606786Y-16399214D01*
X16563928Y-16399214D01*
X16535357Y-16384929D01*
X16521071Y-16356357D01*
X16521071Y-16342071D01*
X16535357Y-16313500D01*
X16563928Y-16299214D01*
X16606786Y-16299214D01*
X16635357Y-16313500D01*
X16749643Y-16613500D02*
X16763928Y-16599214D01*
X16792500Y-16556357D01*
X16806786Y-16527786D01*
X16821071Y-16484929D01*
X16835357Y-16413500D01*
X16835357Y-16356357D01*
X16821071Y-16284929D01*
X16806786Y-16242071D01*
X16792500Y-16213500D01*
X16763928Y-16170643D01*
X16749643Y-16156357D01*
X9942500Y-16709500D02*
X9942500Y-16809500D01*
X9892500Y-16759500D02*
X9992500Y-16759500D01*
X10421071Y-16895214D02*
X10249643Y-16895214D01*
X10335357Y-16895214D02*
X10335357Y-16595214D01*
X10306786Y-16638071D01*
X10278214Y-16666643D01*
X10249643Y-16680929D01*
X10549643Y-16866643D02*
X10563929Y-16880929D01*
X10549643Y-16895214D01*
X10535357Y-16880929D01*
X10549643Y-16866643D01*
X10549643Y-16895214D01*
X10749643Y-16595214D02*
X10778214Y-16595214D01*
X10806786Y-16609500D01*
X10821071Y-16623786D01*
X10835357Y-16652357D01*
X10849643Y-16709500D01*
X10849643Y-16780929D01*
X10835357Y-16838072D01*
X10821071Y-16866643D01*
X10806786Y-16880929D01*
X10778214Y-16895214D01*
X10749643Y-16895214D01*
X10721071Y-16880929D01*
X10706786Y-16866643D01*
X10692500Y-16838072D01*
X10678214Y-16780929D01*
X10678214Y-16709500D01*
X10692500Y-16652357D01*
X10706786Y-16623786D01*
X10721071Y-16609500D01*
X10749643Y-16595214D01*
X11035357Y-16595214D02*
X11063929Y-16595214D01*
X11092500Y-16609500D01*
X11106786Y-16623786D01*
X11121071Y-16652357D01*
X11135357Y-16709500D01*
X11135357Y-16780929D01*
X11121071Y-16838072D01*
X11106786Y-16866643D01*
X11092500Y-16880929D01*
X11063929Y-16895214D01*
X11035357Y-16895214D01*
X11006786Y-16880929D01*
X10992500Y-16866643D01*
X10978214Y-16838072D01*
X10963929Y-16780929D01*
X10963929Y-16709500D01*
X10978214Y-16652357D01*
X10992500Y-16623786D01*
X11006786Y-16609500D01*
X11035357Y-16595214D01*
X11263928Y-16895214D02*
X11263928Y-16695214D01*
X11263928Y-16723786D02*
X11278214Y-16709500D01*
X11306786Y-16695214D01*
X11349643Y-16695214D01*
X11378214Y-16709500D01*
X11392500Y-16738071D01*
X11392500Y-16895214D01*
X11392500Y-16738071D02*
X11406786Y-16709500D01*
X11435357Y-16695214D01*
X11478214Y-16695214D01*
X11506786Y-16709500D01*
X11521071Y-16738071D01*
X11521071Y-16895214D01*
X11663928Y-16895214D02*
X11663928Y-16695214D01*
X11663928Y-16723786D02*
X11678214Y-16709500D01*
X11706786Y-16695214D01*
X11749643Y-16695214D01*
X11778214Y-16709500D01*
X11792500Y-16738071D01*
X11792500Y-16895214D01*
X11792500Y-16738071D02*
X11806786Y-16709500D01*
X11835357Y-16695214D01*
X11878214Y-16695214D01*
X11906786Y-16709500D01*
X11921071Y-16738071D01*
X11921071Y-16895214D01*
X12506786Y-16580929D02*
X12249643Y-16966643D01*
X12892500Y-16595214D02*
X12921071Y-16595214D01*
X12949643Y-16609500D01*
X12963928Y-16623786D01*
X12978214Y-16652357D01*
X12992500Y-16709500D01*
X12992500Y-16780929D01*
X12978214Y-16838072D01*
X12963928Y-16866643D01*
X12949643Y-16880929D01*
X12921071Y-16895214D01*
X12892500Y-16895214D01*
X12863928Y-16880929D01*
X12849643Y-16866643D01*
X12835357Y-16838072D01*
X12821071Y-16780929D01*
X12821071Y-16709500D01*
X12835357Y-16652357D01*
X12849643Y-16623786D01*
X12863928Y-16609500D01*
X12892500Y-16595214D01*
X13121071Y-16866643D02*
X13135357Y-16880929D01*
X13121071Y-16895214D01*
X13106786Y-16880929D01*
X13121071Y-16866643D01*
X13121071Y-16895214D01*
X13321071Y-16595214D02*
X13349643Y-16595214D01*
X13378214Y-16609500D01*
X13392500Y-16623786D01*
X13406785Y-16652357D01*
X13421071Y-16709500D01*
X13421071Y-16780929D01*
X13406785Y-16838072D01*
X13392500Y-16866643D01*
X13378214Y-16880929D01*
X13349643Y-16895214D01*
X13321071Y-16895214D01*
X13292500Y-16880929D01*
X13278214Y-16866643D01*
X13263928Y-16838072D01*
X13249643Y-16780929D01*
X13249643Y-16709500D01*
X13263928Y-16652357D01*
X13278214Y-16623786D01*
X13292500Y-16609500D01*
X13321071Y-16595214D01*
X13521071Y-16595214D02*
X13706785Y-16595214D01*
X13606785Y-16709500D01*
X13649643Y-16709500D01*
X13678214Y-16723786D01*
X13692500Y-16738071D01*
X13706785Y-16766643D01*
X13706785Y-16838072D01*
X13692500Y-16866643D01*
X13678214Y-16880929D01*
X13649643Y-16895214D01*
X13563928Y-16895214D01*
X13535357Y-16880929D01*
X13521071Y-16866643D01*
X13849643Y-16895214D02*
X13906785Y-16895214D01*
X13935357Y-16880929D01*
X13949643Y-16866643D01*
X13978214Y-16823786D01*
X13992500Y-16766643D01*
X13992500Y-16652357D01*
X13978214Y-16623786D01*
X13963928Y-16609500D01*
X13935357Y-16595214D01*
X13878214Y-16595214D01*
X13849643Y-16609500D01*
X13835357Y-16623786D01*
X13821071Y-16652357D01*
X13821071Y-16723786D01*
X13835357Y-16752357D01*
X13849643Y-16766643D01*
X13878214Y-16780929D01*
X13935357Y-16780929D01*
X13963928Y-16766643D01*
X13978214Y-16752357D01*
X13992500Y-16723786D01*
X14106786Y-16595214D02*
X14106786Y-16652357D01*
X14221071Y-16595214D02*
X14221071Y-16652357D01*
X14663928Y-17009500D02*
X14649643Y-16995214D01*
X14621071Y-16952357D01*
X14606785Y-16923786D01*
X14592500Y-16880929D01*
X14578214Y-16809500D01*
X14578214Y-16752357D01*
X14592500Y-16680929D01*
X14606785Y-16638071D01*
X14621071Y-16609500D01*
X14649643Y-16566643D01*
X14663928Y-16552357D01*
X14935357Y-16895214D02*
X14763928Y-16895214D01*
X14849643Y-16895214D02*
X14849643Y-16595214D01*
X14821071Y-16638071D01*
X14792500Y-16666643D01*
X14763928Y-16680929D01*
X15035357Y-16595214D02*
X15235357Y-16595214D01*
X15106785Y-16895214D01*
X15578214Y-16895214D02*
X15578214Y-16595214D01*
X15706785Y-16895214D02*
X15706785Y-16738071D01*
X15692500Y-16709500D01*
X15663928Y-16695214D01*
X15621071Y-16695214D01*
X15592500Y-16709500D01*
X15578214Y-16723786D01*
X15892500Y-16895214D02*
X15863928Y-16880929D01*
X15849643Y-16866643D01*
X15835357Y-16838072D01*
X15835357Y-16752357D01*
X15849643Y-16723786D01*
X15863928Y-16709500D01*
X15892500Y-16695214D01*
X15935357Y-16695214D01*
X15963928Y-16709500D01*
X15978214Y-16723786D01*
X15992500Y-16752357D01*
X15992500Y-16838072D01*
X15978214Y-16866643D01*
X15963928Y-16880929D01*
X15935357Y-16895214D01*
X15892500Y-16895214D01*
X16163928Y-16895214D02*
X16135357Y-16880929D01*
X16121071Y-16852357D01*
X16121071Y-16595214D01*
X16392500Y-16880929D02*
X16363928Y-16895214D01*
X16306786Y-16895214D01*
X16278214Y-16880929D01*
X16263928Y-16852357D01*
X16263928Y-16738071D01*
X16278214Y-16709500D01*
X16306786Y-16695214D01*
X16363928Y-16695214D01*
X16392500Y-16709500D01*
X16406786Y-16738071D01*
X16406786Y-16766643D01*
X16263928Y-16795214D01*
X16521071Y-16880929D02*
X16549643Y-16895214D01*
X16606786Y-16895214D01*
X16635357Y-16880929D01*
X16649643Y-16852357D01*
X16649643Y-16838072D01*
X16635357Y-16809500D01*
X16606786Y-16795214D01*
X16563928Y-16795214D01*
X16535357Y-16780929D01*
X16521071Y-16752357D01*
X16521071Y-16738071D01*
X16535357Y-16709500D01*
X16563928Y-16695214D01*
X16606786Y-16695214D01*
X16635357Y-16709500D01*
X16749643Y-17009500D02*
X16763928Y-16995214D01*
X16792500Y-16952357D01*
X16806786Y-16923786D01*
X16821071Y-16880929D01*
X16835357Y-16809500D01*
X16835357Y-16752357D01*
X16821071Y-16680929D01*
X16806786Y-16638071D01*
X16792500Y-16609500D01*
X16763928Y-16566643D01*
X16749643Y-16552357D01*
X9945638Y-17268638D02*
X9945638Y-17042362D01*
X9719362Y-17042362D01*
X9719362Y-17268638D01*
X9945638Y-17268638D01*
X10235357Y-16991214D02*
X10421071Y-16991214D01*
X10321071Y-17105500D01*
X10363929Y-17105500D01*
X10392500Y-17119786D01*
X10406786Y-17134072D01*
X10421071Y-17162643D01*
X10421071Y-17234072D01*
X10406786Y-17262643D01*
X10392500Y-17276929D01*
X10363929Y-17291214D01*
X10278214Y-17291214D01*
X10249643Y-17276929D01*
X10235357Y-17262643D01*
X10549643Y-17262643D02*
X10563929Y-17276929D01*
X10549643Y-17291214D01*
X10535357Y-17276929D01*
X10549643Y-17262643D01*
X10549643Y-17291214D01*
X10678214Y-17019786D02*
X10692500Y-17005500D01*
X10721071Y-16991214D01*
X10792500Y-16991214D01*
X10821071Y-17005500D01*
X10835357Y-17019786D01*
X10849643Y-17048357D01*
X10849643Y-17076929D01*
X10835357Y-17119786D01*
X10663928Y-17291214D01*
X10849643Y-17291214D01*
X11035357Y-16991214D02*
X11063929Y-16991214D01*
X11092500Y-17005500D01*
X11106786Y-17019786D01*
X11121071Y-17048357D01*
X11135357Y-17105500D01*
X11135357Y-17176929D01*
X11121071Y-17234072D01*
X11106786Y-17262643D01*
X11092500Y-17276929D01*
X11063929Y-17291214D01*
X11035357Y-17291214D01*
X11006786Y-17276929D01*
X10992500Y-17262643D01*
X10978214Y-17234072D01*
X10963929Y-17176929D01*
X10963929Y-17105500D01*
X10978214Y-17048357D01*
X10992500Y-17019786D01*
X11006786Y-17005500D01*
X11035357Y-16991214D01*
X11263928Y-17291214D02*
X11263928Y-17091214D01*
X11263928Y-17119786D02*
X11278214Y-17105500D01*
X11306786Y-17091214D01*
X11349643Y-17091214D01*
X11378214Y-17105500D01*
X11392500Y-17134072D01*
X11392500Y-17291214D01*
X11392500Y-17134072D02*
X11406786Y-17105500D01*
X11435357Y-17091214D01*
X11478214Y-17091214D01*
X11506786Y-17105500D01*
X11521071Y-17134072D01*
X11521071Y-17291214D01*
X11663928Y-17291214D02*
X11663928Y-17091214D01*
X11663928Y-17119786D02*
X11678214Y-17105500D01*
X11706786Y-17091214D01*
X11749643Y-17091214D01*
X11778214Y-17105500D01*
X11792500Y-17134072D01*
X11792500Y-17291214D01*
X11792500Y-17134072D02*
X11806786Y-17105500D01*
X11835357Y-17091214D01*
X11878214Y-17091214D01*
X11906786Y-17105500D01*
X11921071Y-17134072D01*
X11921071Y-17291214D01*
X12506786Y-16976929D02*
X12249643Y-17362643D01*
X12892500Y-16991214D02*
X12921071Y-16991214D01*
X12949643Y-17005500D01*
X12963928Y-17019786D01*
X12978214Y-17048357D01*
X12992500Y-17105500D01*
X12992500Y-17176929D01*
X12978214Y-17234072D01*
X12963928Y-17262643D01*
X12949643Y-17276929D01*
X12921071Y-17291214D01*
X12892500Y-17291214D01*
X12863928Y-17276929D01*
X12849643Y-17262643D01*
X12835357Y-17234072D01*
X12821071Y-17176929D01*
X12821071Y-17105500D01*
X12835357Y-17048357D01*
X12849643Y-17019786D01*
X12863928Y-17005500D01*
X12892500Y-16991214D01*
X13121071Y-17262643D02*
X13135357Y-17276929D01*
X13121071Y-17291214D01*
X13106786Y-17276929D01*
X13121071Y-17262643D01*
X13121071Y-17291214D01*
X13421071Y-17291214D02*
X13249643Y-17291214D01*
X13335357Y-17291214D02*
X13335357Y-16991214D01*
X13306785Y-17034072D01*
X13278214Y-17062643D01*
X13249643Y-17076929D01*
X13535357Y-17019786D02*
X13549643Y-17005500D01*
X13578214Y-16991214D01*
X13649643Y-16991214D01*
X13678214Y-17005500D01*
X13692500Y-17019786D01*
X13706785Y-17048357D01*
X13706785Y-17076929D01*
X13692500Y-17119786D01*
X13521071Y-17291214D01*
X13706785Y-17291214D01*
X13963928Y-16991214D02*
X13906785Y-16991214D01*
X13878214Y-17005500D01*
X13863928Y-17019786D01*
X13835357Y-17062643D01*
X13821071Y-17119786D01*
X13821071Y-17234072D01*
X13835357Y-17262643D01*
X13849643Y-17276929D01*
X13878214Y-17291214D01*
X13935357Y-17291214D01*
X13963928Y-17276929D01*
X13978214Y-17262643D01*
X13992500Y-17234072D01*
X13992500Y-17162643D01*
X13978214Y-17134072D01*
X13963928Y-17119786D01*
X13935357Y-17105500D01*
X13878214Y-17105500D01*
X13849643Y-17119786D01*
X13835357Y-17134072D01*
X13821071Y-17162643D01*
X14106786Y-16991214D02*
X14106786Y-17048357D01*
X14221071Y-16991214D02*
X14221071Y-17048357D01*
X14663928Y-17405500D02*
X14649643Y-17391214D01*
X14621071Y-17348357D01*
X14606785Y-17319786D01*
X14592500Y-17276929D01*
X14578214Y-17205500D01*
X14578214Y-17148357D01*
X14592500Y-17076929D01*
X14606785Y-17034072D01*
X14621071Y-17005500D01*
X14649643Y-16962643D01*
X14663928Y-16948357D01*
X14763928Y-17019786D02*
X14778214Y-17005500D01*
X14806785Y-16991214D01*
X14878214Y-16991214D01*
X14906785Y-17005500D01*
X14921071Y-17019786D01*
X14935357Y-17048357D01*
X14935357Y-17076929D01*
X14921071Y-17119786D01*
X14749643Y-17291214D01*
X14935357Y-17291214D01*
X15292500Y-17291214D02*
X15292500Y-16991214D01*
X15421071Y-17291214D02*
X15421071Y-17134072D01*
X15406785Y-17105500D01*
X15378214Y-17091214D01*
X15335357Y-17091214D01*
X15306785Y-17105500D01*
X15292500Y-17119786D01*
X15606785Y-17291214D02*
X15578214Y-17276929D01*
X15563928Y-17262643D01*
X15549643Y-17234072D01*
X15549643Y-17148357D01*
X15563928Y-17119786D01*
X15578214Y-17105500D01*
X15606785Y-17091214D01*
X15649643Y-17091214D01*
X15678214Y-17105500D01*
X15692500Y-17119786D01*
X15706785Y-17148357D01*
X15706785Y-17234072D01*
X15692500Y-17262643D01*
X15678214Y-17276929D01*
X15649643Y-17291214D01*
X15606785Y-17291214D01*
X15878214Y-17291214D02*
X15849643Y-17276929D01*
X15835357Y-17248357D01*
X15835357Y-16991214D01*
X16106786Y-17276929D02*
X16078214Y-17291214D01*
X16021071Y-17291214D01*
X15992500Y-17276929D01*
X15978214Y-17248357D01*
X15978214Y-17134072D01*
X15992500Y-17105500D01*
X16021071Y-17091214D01*
X16078214Y-17091214D01*
X16106786Y-17105500D01*
X16121071Y-17134072D01*
X16121071Y-17162643D01*
X15978214Y-17191214D01*
X16235357Y-17276929D02*
X16263928Y-17291214D01*
X16321071Y-17291214D01*
X16349643Y-17276929D01*
X16363928Y-17248357D01*
X16363928Y-17234072D01*
X16349643Y-17205500D01*
X16321071Y-17191214D01*
X16278214Y-17191214D01*
X16249643Y-17176929D01*
X16235357Y-17148357D01*
X16235357Y-17134072D01*
X16249643Y-17105500D01*
X16278214Y-17091214D01*
X16321071Y-17091214D01*
X16349643Y-17105500D01*
X16463928Y-17405500D02*
X16478214Y-17391214D01*
X16506786Y-17348357D01*
X16521071Y-17319786D01*
X16535357Y-17276929D01*
X16549643Y-17205500D01*
X16549643Y-17148357D01*
X16535357Y-17076929D01*
X16521071Y-17034072D01*
X16506786Y-17005500D01*
X16478214Y-16962643D01*
X16463928Y-16948357D01*
M02*
